<svg xmlns="http://www.w3.org/2000/svg" xmlns:xlink="http://www.w3.org/1999/xlink" width="500" zoomAndPan="magnify" viewBox="0 0 375 374.999991" height="500" preserveAspectRatio="xMidYMid meet" version="1.0"><defs><g/><clipPath id="9bfe38551d"><path d="M 61.402344 106.402344 L 149.601562 106.402344 L 149.601562 268.402344 L 61.402344 268.402344 Z M 61.402344 106.402344 " clip-rule="nonzero"/></clipPath><clipPath id="c09286b6f5"><path d="M 70.246094 124.058594 L 149.601562 124.058594 L 149.601562 197.839844 L 70.246094 197.839844 Z M 70.246094 124.058594 " clip-rule="nonzero"/></clipPath></defs><rect x="-37.5" width="450" fill="#ffffff" y="-37.499999" height="449.999989" fill-opacity="1"/><rect x="-37.5" width="450" fill="#ffffff" y="-37.499999" height="449.999989" fill-opacity="1"/><rect x="-37.5" width="450" fill="#ffffff" y="-37.499999" height="449.999989" fill-opacity="1"/><g clip-path="url(#9bfe38551d)"><path fill="#fffff0" d="M 109.363281 190.6875 C 59.328125 196.566406 52.476562 233.164062 70.390625 268.421875 C 62.945312 232.25 76.625 208.957031 104.988281 202.917969 C 122.753906 199.136719 145.652344 191.082031 149.089844 170.480469 C 149.15625 170.097656 149.179688 169.691406 149.226562 169.296875 C 141.070312 182.246094 127.203125 188.59375 109.363281 190.6875 Z M 134.542969 126.074219 C 137.0625 118.757812 138.269531 117.894531 146.023438 117.863281 C 138.691406 115.34375 137.828125 114.144531 137.796875 106.402344 C 135.273438 113.71875 134.066406 114.582031 126.316406 114.617188 C 133.644531 117.132812 134.507812 118.335938 134.542969 126.074219 " fill-opacity="1" fill-rule="nonzero"/></g><g clip-path="url(#c09286b6f5)"><path fill="#f5f5f5" d="M 105.316406 160.375 C 111.4375 160.375 116.402344 155.417969 116.402344 149.304688 C 116.402344 143.191406 111.4375 138.234375 105.316406 138.234375 C 99.191406 138.234375 94.230469 143.191406 94.230469 149.304688 C 94.230469 155.417969 99.191406 160.375 105.316406 160.375 Z M 143.375 124.300781 C 151.164062 137.882812 140.449219 158.429688 103.914062 168.078125 C 81.996094 173.867188 73.371094 185.804688 70.550781 197.285156 C 77.996094 189.152344 89.710938 182.300781 106.226562 179.332031 C 124.101562 176.121094 146.523438 166.324219 149.363281 145.636719 C 150.324219 138.632812 148.433594 130.640625 143.375 124.300781 " fill-opacity="1" fill-rule="nonzero"/></g><g fill="#f5f5f5" fill-opacity="1"><g transform="translate(91.972587, 235.815834)"><g><path d="M 20 -19.3125 L 20 0 L 16.328125 0 L 6.703125 -11.734375 L 6.703125 0 L 2.296875 0 L 2.296875 -19.3125 L 5.984375 -19.3125 L 15.59375 -7.59375 L 15.59375 -19.3125 Z M 20 -19.3125 "/></g></g></g><g fill="#f5f5f5" fill-opacity="1"><g transform="translate(115.586795, 235.815834)"><g><path d="M 16.9375 -14.84375 L 16.9375 0 L 12.859375 0 L 12.859375 -1.765625 C 12.285156 -1.117188 11.601562 -0.625 10.8125 -0.28125 C 10.019531 0.0507812 9.164062 0.21875 8.25 0.21875 C 6.300781 0.21875 4.753906 -0.335938 3.609375 -1.453125 C 2.472656 -2.578125 1.90625 -4.242188 1.90625 -6.453125 L 1.90625 -14.84375 L 6.203125 -14.84375 L 6.203125 -7.09375 C 6.203125 -4.695312 7.207031 -3.5 9.21875 -3.5 C 10.25 -3.5 11.078125 -3.832031 11.703125 -4.5 C 12.328125 -5.175781 12.640625 -6.175781 12.640625 -7.5 L 12.640625 -14.84375 Z M 16.9375 -14.84375 "/></g></g></g><g fill="#f5f5f5" fill-opacity="1"><g transform="translate(135.863106, 235.815834)"><g><path d="M 6.09375 -12.890625 C 6.613281 -13.609375 7.3125 -14.148438 8.1875 -14.515625 C 9.0625 -14.878906 10.066406 -15.0625 11.203125 -15.0625 L 11.203125 -11.09375 C 10.722656 -11.125 10.398438 -11.140625 10.234375 -11.140625 C 9.003906 -11.140625 8.039062 -10.796875 7.34375 -10.109375 C 6.644531 -9.421875 6.296875 -8.390625 6.296875 -7.015625 L 6.296875 0 L 1.984375 0 L 1.984375 -14.84375 L 6.09375 -14.84375 Z M 6.09375 -12.890625 "/></g></g></g><g fill="#f5f5f5" fill-opacity="1"><g transform="translate(149.077406, 235.815834)"><g><path d="M 11.5625 -0.71875 C 11.132812 -0.40625 10.613281 -0.171875 10 -0.015625 C 9.382812 0.140625 8.738281 0.21875 8.0625 0.21875 C 6.289062 0.21875 4.921875 -0.226562 3.953125 -1.125 C 2.992188 -2.03125 2.515625 -3.359375 2.515625 -5.109375 L 2.515625 -11.203125 L 0.21875 -11.203125 L 0.21875 -14.515625 L 2.515625 -14.515625 L 2.515625 -18.125 L 6.8125 -18.125 L 6.8125 -14.515625 L 10.515625 -14.515625 L 10.515625 -11.203125 L 6.8125 -11.203125 L 6.8125 -5.15625 C 6.8125 -4.53125 6.972656 -4.046875 7.296875 -3.703125 C 7.617188 -3.367188 8.078125 -3.203125 8.671875 -3.203125 C 9.347656 -3.203125 9.925781 -3.382812 10.40625 -3.75 Z M 11.5625 -0.71875 "/></g></g></g><g fill="#f5f5f5" fill-opacity="1"><g transform="translate(162.402047, 235.815834)"><g><path d="M 16.9375 -14.84375 L 16.9375 0 L 12.859375 0 L 12.859375 -1.765625 C 12.285156 -1.117188 11.601562 -0.625 10.8125 -0.28125 C 10.019531 0.0507812 9.164062 0.21875 8.25 0.21875 C 6.300781 0.21875 4.753906 -0.335938 3.609375 -1.453125 C 2.472656 -2.578125 1.90625 -4.242188 1.90625 -6.453125 L 1.90625 -14.84375 L 6.203125 -14.84375 L 6.203125 -7.09375 C 6.203125 -4.695312 7.207031 -3.5 9.21875 -3.5 C 10.25 -3.5 11.078125 -3.832031 11.703125 -4.5 C 12.328125 -5.175781 12.640625 -6.175781 12.640625 -7.5 L 12.640625 -14.84375 Z M 16.9375 -14.84375 "/></g></g></g><g fill="#f5f5f5" fill-opacity="1"><g transform="translate(182.678356, 235.815834)"><g><path d="M 6.09375 -12.890625 C 6.613281 -13.609375 7.3125 -14.148438 8.1875 -14.515625 C 9.0625 -14.878906 10.066406 -15.0625 11.203125 -15.0625 L 11.203125 -11.09375 C 10.722656 -11.125 10.398438 -11.140625 10.234375 -11.140625 C 9.003906 -11.140625 8.039062 -10.796875 7.34375 -10.109375 C 6.644531 -9.421875 6.296875 -8.390625 6.296875 -7.015625 L 6.296875 0 L 1.984375 0 L 1.984375 -14.84375 L 6.09375 -14.84375 Z M 6.09375 -12.890625 "/></g></g></g><g fill="#f5f5f5" fill-opacity="1"><g transform="translate(195.892659, 235.815834)"><g><path d="M 16.53125 -7.375 C 16.53125 -7.3125 16.503906 -6.921875 16.453125 -6.203125 L 5.21875 -6.203125 C 5.414062 -5.285156 5.890625 -4.5625 6.640625 -4.03125 C 7.398438 -3.5 8.34375 -3.234375 9.46875 -3.234375 C 10.238281 -3.234375 10.921875 -3.347656 11.515625 -3.578125 C 12.117188 -3.804688 12.675781 -4.164062 13.1875 -4.65625 L 15.484375 -2.1875 C 14.085938 -0.582031 12.046875 0.21875 9.359375 0.21875 C 7.679688 0.21875 6.195312 -0.101562 4.90625 -0.75 C 3.625 -1.40625 2.632812 -2.3125 1.9375 -3.46875 C 1.238281 -4.632812 0.890625 -5.953125 0.890625 -7.421875 C 0.890625 -8.878906 1.234375 -10.191406 1.921875 -11.359375 C 2.609375 -12.523438 3.550781 -13.429688 4.75 -14.078125 C 5.957031 -14.734375 7.304688 -15.0625 8.796875 -15.0625 C 10.253906 -15.0625 11.570312 -14.75 12.75 -14.125 C 13.925781 -13.5 14.847656 -12.601562 15.515625 -11.4375 C 16.191406 -10.269531 16.53125 -8.914062 16.53125 -7.375 Z M 8.828125 -11.8125 C 7.859375 -11.8125 7.039062 -11.535156 6.375 -10.984375 C 5.707031 -10.429688 5.300781 -9.675781 5.15625 -8.71875 L 12.46875 -8.71875 C 12.320312 -9.65625 11.914062 -10.40625 11.25 -10.96875 C 10.59375 -11.53125 9.785156 -11.8125 8.828125 -11.8125 Z M 8.828125 -11.8125 "/></g></g></g><g fill="#f5f5f5" fill-opacity="1"><g transform="translate(214.624153, 235.815834)"><g><path d="M 14.59375 0 L 10.875 -5.375 L 6.765625 -5.375 L 6.765625 0 L 2.296875 0 L 2.296875 -19.3125 L 10.65625 -19.3125 C 12.363281 -19.3125 13.847656 -19.023438 15.109375 -18.453125 C 16.367188 -17.890625 17.335938 -17.082031 18.015625 -16.03125 C 18.703125 -14.976562 19.046875 -13.738281 19.046875 -12.3125 C 19.046875 -10.875 18.695312 -9.632812 18 -8.59375 C 17.3125 -7.550781 16.332031 -6.753906 15.0625 -6.203125 L 19.40625 0 Z M 14.515625 -12.3125 C 14.515625 -13.394531 14.164062 -14.222656 13.46875 -14.796875 C 12.769531 -15.378906 11.75 -15.671875 10.40625 -15.671875 L 6.765625 -15.671875 L 6.765625 -8.9375 L 10.40625 -8.9375 C 11.75 -8.9375 12.769531 -9.226562 13.46875 -9.8125 C 14.164062 -10.40625 14.515625 -11.238281 14.515625 -12.3125 Z M 14.515625 -12.3125 "/></g></g></g><g fill="#f5f5f5" fill-opacity="1"><g transform="translate(236.224589, 235.815834)"><g><path d="M 16.53125 -7.375 C 16.53125 -7.3125 16.503906 -6.921875 16.453125 -6.203125 L 5.21875 -6.203125 C 5.414062 -5.285156 5.890625 -4.5625 6.640625 -4.03125 C 7.398438 -3.5 8.34375 -3.234375 9.46875 -3.234375 C 10.238281 -3.234375 10.921875 -3.347656 11.515625 -3.578125 C 12.117188 -3.804688 12.675781 -4.164062 13.1875 -4.65625 L 15.484375 -2.1875 C 14.085938 -0.582031 12.046875 0.21875 9.359375 0.21875 C 7.679688 0.21875 6.195312 -0.101562 4.90625 -0.75 C 3.625 -1.40625 2.632812 -2.3125 1.9375 -3.46875 C 1.238281 -4.632812 0.890625 -5.953125 0.890625 -7.421875 C 0.890625 -8.878906 1.234375 -10.191406 1.921875 -11.359375 C 2.609375 -12.523438 3.550781 -13.429688 4.75 -14.078125 C 5.957031 -14.734375 7.304688 -15.0625 8.796875 -15.0625 C 10.253906 -15.0625 11.570312 -14.75 12.75 -14.125 C 13.925781 -13.5 14.847656 -12.601562 15.515625 -11.4375 C 16.191406 -10.269531 16.53125 -8.914062 16.53125 -7.375 Z M 8.828125 -11.8125 C 7.859375 -11.8125 7.039062 -11.535156 6.375 -10.984375 C 5.707031 -10.429688 5.300781 -9.675781 5.15625 -8.71875 L 12.46875 -8.71875 C 12.320312 -9.65625 11.914062 -10.40625 11.25 -10.96875 C 10.59375 -11.53125 9.785156 -11.8125 8.828125 -11.8125 Z M 8.828125 -11.8125 "/></g></g></g><g fill="#f5f5f5" fill-opacity="1"><g transform="translate(254.956083, 235.815834)"><g><path d="M 7.96875 -15.0625 C 10.269531 -15.0625 12.035156 -14.515625 13.265625 -13.421875 C 14.503906 -12.328125 15.125 -10.675781 15.125 -8.46875 L 15.125 0 L 11.09375 0 L 11.09375 -1.84375 C 10.28125 -0.46875 8.769531 0.21875 6.5625 0.21875 C 5.425781 0.21875 4.4375 0.0234375 3.59375 -0.359375 C 2.757812 -0.742188 2.117188 -1.273438 1.671875 -1.953125 C 1.234375 -2.640625 1.015625 -3.414062 1.015625 -4.28125 C 1.015625 -5.65625 1.535156 -6.738281 2.578125 -7.53125 C 3.617188 -8.320312 5.222656 -8.71875 7.390625 -8.71875 L 10.8125 -8.71875 C 10.8125 -9.65625 10.523438 -10.375 9.953125 -10.875 C 9.390625 -11.382812 8.535156 -11.640625 7.390625 -11.640625 C 6.597656 -11.640625 5.820312 -11.515625 5.0625 -11.265625 C 4.300781 -11.023438 3.65625 -10.691406 3.125 -10.265625 L 1.578125 -13.265625 C 2.378906 -13.835938 3.347656 -14.28125 4.484375 -14.59375 C 5.617188 -14.90625 6.78125 -15.0625 7.96875 -15.0625 Z M 7.640625 -2.671875 C 8.378906 -2.671875 9.03125 -2.84375 9.59375 -3.1875 C 10.164062 -3.53125 10.570312 -4.03125 10.8125 -4.6875 L 10.8125 -6.203125 L 7.859375 -6.203125 C 6.097656 -6.203125 5.21875 -5.625 5.21875 -4.46875 C 5.21875 -3.914062 5.429688 -3.476562 5.859375 -3.15625 C 6.296875 -2.832031 6.890625 -2.671875 7.640625 -2.671875 Z M 7.640625 -2.671875 "/></g></g></g><g fill="#f5f5f5" fill-opacity="1"><g transform="translate(273.301373, 235.815834)"><g><path d="M 9.15625 0.21875 C 7.570312 0.21875 6.148438 -0.101562 4.890625 -0.75 C 3.628906 -1.40625 2.644531 -2.3125 1.9375 -3.46875 C 1.238281 -4.632812 0.890625 -5.953125 0.890625 -7.421875 C 0.890625 -8.890625 1.238281 -10.203125 1.9375 -11.359375 C 2.644531 -12.523438 3.628906 -13.429688 4.890625 -14.078125 C 6.148438 -14.734375 7.570312 -15.0625 9.15625 -15.0625 C 10.71875 -15.0625 12.082031 -14.734375 13.25 -14.078125 C 14.425781 -13.429688 15.28125 -12.5 15.8125 -11.28125 L 12.46875 -9.5 C 11.695312 -10.851562 10.585938 -11.53125 9.140625 -11.53125 C 8.015625 -11.53125 7.082031 -11.160156 6.34375 -10.421875 C 5.613281 -9.691406 5.25 -8.691406 5.25 -7.421875 C 5.25 -6.148438 5.613281 -5.144531 6.34375 -4.40625 C 7.082031 -3.675781 8.015625 -3.3125 9.140625 -3.3125 C 10.609375 -3.3125 11.71875 -3.992188 12.46875 -5.359375 L 15.8125 -3.53125 C 15.28125 -2.351562 14.425781 -1.429688 13.25 -0.765625 C 12.082031 -0.109375 10.71875 0.21875 9.15625 0.21875 Z M 9.15625 0.21875 "/></g></g></g><g fill="#f5f5f5" fill-opacity="1"><g transform="translate(290.929438, 235.815834)"><g><path d="M 11.015625 -15.0625 C 12.847656 -15.0625 14.328125 -14.507812 15.453125 -13.40625 C 16.585938 -12.300781 17.15625 -10.664062 17.15625 -8.5 L 17.15625 0 L 12.859375 0 L 12.859375 -7.84375 C 12.859375 -9.019531 12.597656 -9.894531 12.078125 -10.46875 C 11.566406 -11.050781 10.820312 -11.34375 9.84375 -11.34375 C 8.757812 -11.34375 7.894531 -11.003906 7.25 -10.328125 C 6.613281 -9.660156 6.296875 -8.664062 6.296875 -7.34375 L 6.296875 0 L 1.984375 0 L 1.984375 -20.46875 L 6.296875 -20.46875 L 6.296875 -13.296875 C 6.859375 -13.867188 7.546875 -14.304688 8.359375 -14.609375 C 9.171875 -14.910156 10.054688 -15.0625 11.015625 -15.0625 Z M 11.015625 -15.0625 "/></g></g></g><g fill="#a29e9e" fill-opacity="1"><g transform="translate(92.722587, 255.570204)"><g><path d="M 6.21875 0.09375 C 5.1875 0.09375 4.253906 -0.132812 3.421875 -0.59375 C 2.597656 -1.050781 1.945312 -1.679688 1.46875 -2.484375 C 1 -3.296875 0.765625 -4.203125 0.765625 -5.203125 C 0.765625 -6.203125 1 -7.101562 1.46875 -7.90625 C 1.945312 -8.71875 2.601562 -9.347656 3.4375 -9.796875 C 4.269531 -10.253906 5.195312 -10.484375 6.21875 -10.484375 C 7 -10.484375 7.710938 -10.351562 8.359375 -10.09375 C 9.015625 -9.84375 9.570312 -9.46875 10.03125 -8.96875 L 9.328125 -8.28125 C 8.515625 -9.101562 7.488281 -9.515625 6.25 -9.515625 C 5.425781 -9.515625 4.675781 -9.320312 4 -8.9375 C 3.332031 -8.5625 2.804688 -8.046875 2.421875 -7.390625 C 2.046875 -6.742188 1.859375 -6.015625 1.859375 -5.203125 C 1.859375 -4.390625 2.046875 -3.65625 2.421875 -3 C 2.804688 -2.34375 3.332031 -1.828125 4 -1.453125 C 4.675781 -1.078125 5.425781 -0.890625 6.25 -0.890625 C 7.5 -0.890625 8.523438 -1.304688 9.328125 -2.140625 L 10.03125 -1.4375 C 9.570312 -0.945312 9.015625 -0.566406 8.359375 -0.296875 C 7.703125 -0.0351562 6.988281 0.09375 6.21875 0.09375 Z M 6.21875 0.09375 "/></g></g></g><g fill="#a29e9e" fill-opacity="1"><g transform="translate(104.200345, 255.570204)"><g><path d="M 10.390625 -10.40625 L 10.390625 0 L 9.296875 0 L 9.296875 -4.796875 L 2.796875 -4.796875 L 2.796875 0 L 1.6875 0 L 1.6875 -10.40625 L 2.796875 -10.40625 L 2.796875 -5.765625 L 9.296875 -5.765625 L 9.296875 -10.40625 Z M 10.390625 -10.40625 "/></g></g></g><g fill="#a29e9e" fill-opacity="1"><g transform="translate(117.07378, 255.570204)"><g><path d="M 8.21875 -2.78125 L 2.421875 -2.78125 L 1.171875 0 L 0.03125 0 L 4.78125 -10.40625 L 5.875 -10.40625 L 10.625 0 L 9.46875 0 Z M 7.8125 -3.671875 L 5.3125 -9.25 L 2.828125 -3.671875 Z M 7.8125 -3.671875 "/></g></g></g><g fill="#a29e9e" fill-opacity="1"><g transform="translate(128.521839, 255.570204)"><g><path d="M 8.796875 0 L 6.421875 -3.34375 C 6.148438 -3.3125 5.875 -3.296875 5.59375 -3.296875 L 2.796875 -3.296875 L 2.796875 0 L 1.6875 0 L 1.6875 -10.40625 L 5.59375 -10.40625 C 6.914062 -10.40625 7.953125 -10.085938 8.703125 -9.453125 C 9.460938 -8.816406 9.84375 -7.941406 9.84375 -6.828125 C 9.84375 -6.015625 9.632812 -5.328125 9.21875 -4.765625 C 8.8125 -4.210938 8.222656 -3.8125 7.453125 -3.5625 L 10 0 Z M 5.5625 -4.234375 C 6.59375 -4.234375 7.378906 -4.460938 7.921875 -4.921875 C 8.460938 -5.378906 8.734375 -6.015625 8.734375 -6.828125 C 8.734375 -7.671875 8.460938 -8.316406 7.921875 -8.765625 C 7.378906 -9.222656 6.59375 -9.453125 5.5625 -9.453125 L 2.796875 -9.453125 L 2.796875 -4.234375 Z M 5.5625 -4.234375 "/></g></g></g><g fill="#a29e9e" fill-opacity="1"><g transform="translate(140.05899, 255.570204)"><g><path d="M 1.6875 -10.40625 L 2.796875 -10.40625 L 2.796875 0 L 1.6875 0 Z M 1.6875 -10.40625 "/></g></g></g><g fill="#a29e9e" fill-opacity="1"><g transform="translate(145.345288, 255.570204)"><g><path d="M 3.71875 -9.453125 L 0.0625 -9.453125 L 0.0625 -10.40625 L 8.46875 -10.40625 L 8.46875 -9.453125 L 4.8125 -9.453125 L 4.8125 0 L 3.71875 0 Z M 3.71875 -9.453125 "/></g></g></g><g fill="#a29e9e" fill-opacity="1"><g transform="translate(154.670139, 255.570204)"><g><path d="M 8.21875 -2.78125 L 2.421875 -2.78125 L 1.171875 0 L 0.03125 0 L 4.78125 -10.40625 L 5.875 -10.40625 L 10.625 0 L 9.46875 0 Z M 7.8125 -3.671875 L 5.3125 -9.25 L 2.828125 -3.671875 Z M 7.8125 -3.671875 "/></g></g></g><g fill="#a29e9e" fill-opacity="1"><g transform="translate(166.118201, 255.570204)"><g><path d="M 8.25 -5.359375 C 8.925781 -5.210938 9.453125 -4.914062 9.828125 -4.46875 C 10.203125 -4.03125 10.390625 -3.46875 10.390625 -2.78125 C 10.390625 -1.882812 10.054688 -1.195312 9.390625 -0.71875 C 8.734375 -0.238281 7.765625 0 6.484375 0 L 1.6875 0 L 1.6875 -10.40625 L 6.1875 -10.40625 C 7.34375 -10.40625 8.238281 -10.171875 8.875 -9.703125 C 9.519531 -9.234375 9.84375 -8.578125 9.84375 -7.734375 C 9.84375 -7.148438 9.695312 -6.65625 9.40625 -6.25 C 9.125 -5.851562 8.738281 -5.554688 8.25 -5.359375 Z M 2.796875 -9.5 L 2.796875 -5.71875 L 6.109375 -5.71875 C 6.953125 -5.71875 7.597656 -5.878906 8.046875 -6.203125 C 8.503906 -6.523438 8.734375 -6.992188 8.734375 -7.609375 C 8.734375 -8.222656 8.503906 -8.691406 8.046875 -9.015625 C 7.597656 -9.335938 6.953125 -9.5 6.109375 -9.5 Z M 6.46875 -0.90625 C 7.394531 -0.90625 8.09375 -1.0625 8.5625 -1.375 C 9.039062 -1.695312 9.28125 -2.195312 9.28125 -2.875 C 9.28125 -4.164062 8.34375 -4.8125 6.46875 -4.8125 L 2.796875 -4.8125 L 2.796875 -0.90625 Z M 6.46875 -0.90625 "/></g></g></g><g fill="#a29e9e" fill-opacity="1"><g transform="translate(178.115626, 255.570204)"><g><path d="M 1.6875 -10.40625 L 2.796875 -10.40625 L 2.796875 -0.953125 L 8.625 -0.953125 L 8.625 0 L 1.6875 0 Z M 1.6875 -10.40625 "/></g></g></g><g fill="#a29e9e" fill-opacity="1"><g transform="translate(187.663191, 255.570204)"><g><path d="M 9.046875 -0.953125 L 9.046875 0 L 1.6875 0 L 1.6875 -10.40625 L 8.828125 -10.40625 L 8.828125 -9.453125 L 2.796875 -9.453125 L 2.796875 -5.75 L 8.171875 -5.75 L 8.171875 -4.8125 L 2.796875 -4.8125 L 2.796875 -0.953125 Z M 9.046875 -0.953125 "/></g></g></g><g fill="#a29e9e" fill-opacity="1"><g transform="translate(198.398572, 255.570204)"><g/></g></g><g fill="#a29e9e" fill-opacity="1"><g transform="translate(203.090958, 255.570204)"><g><path d="M 6.234375 0.09375 C 5.210938 0.09375 4.28125 -0.132812 3.4375 -0.59375 C 2.601562 -1.0625 1.945312 -1.695312 1.46875 -2.5 C 1 -3.300781 0.765625 -4.203125 0.765625 -5.203125 C 0.765625 -6.203125 1 -7.101562 1.46875 -7.90625 C 1.945312 -8.707031 2.601562 -9.335938 3.4375 -9.796875 C 4.28125 -10.253906 5.210938 -10.484375 6.234375 -10.484375 C 7.265625 -10.484375 8.191406 -10.253906 9.015625 -9.796875 C 9.847656 -9.347656 10.5 -8.71875 10.96875 -7.90625 C 11.445312 -7.101562 11.6875 -6.203125 11.6875 -5.203125 C 11.6875 -4.203125 11.445312 -3.296875 10.96875 -2.484375 C 10.5 -1.679688 9.847656 -1.050781 9.015625 -0.59375 C 8.191406 -0.132812 7.265625 0.09375 6.234375 0.09375 Z M 6.234375 -0.890625 C 7.054688 -0.890625 7.800781 -1.070312 8.46875 -1.4375 C 9.132812 -1.8125 9.65625 -2.328125 10.03125 -2.984375 C 10.40625 -3.648438 10.59375 -4.390625 10.59375 -5.203125 C 10.59375 -6.015625 10.40625 -6.75 10.03125 -7.40625 C 9.65625 -8.0625 9.132812 -8.578125 8.46875 -8.953125 C 7.800781 -9.328125 7.054688 -9.515625 6.234375 -9.515625 C 5.410156 -9.515625 4.664062 -9.328125 4 -8.953125 C 3.332031 -8.578125 2.804688 -8.0625 2.421875 -7.40625 C 2.046875 -6.75 1.859375 -6.015625 1.859375 -5.203125 C 1.859375 -4.390625 2.046875 -3.648438 2.421875 -2.984375 C 2.804688 -2.328125 3.332031 -1.8125 4 -1.4375 C 4.664062 -1.070312 5.410156 -0.890625 6.234375 -0.890625 Z M 6.234375 -0.890625 "/></g></g></g><g fill="#a29e9e" fill-opacity="1"><g transform="translate(216.350437, 255.570204)"><g><path d="M 8.796875 0 L 6.421875 -3.34375 C 6.148438 -3.3125 5.875 -3.296875 5.59375 -3.296875 L 2.796875 -3.296875 L 2.796875 0 L 1.6875 0 L 1.6875 -10.40625 L 5.59375 -10.40625 C 6.914062 -10.40625 7.953125 -10.085938 8.703125 -9.453125 C 9.460938 -8.816406 9.84375 -7.941406 9.84375 -6.828125 C 9.84375 -6.015625 9.632812 -5.328125 9.21875 -4.765625 C 8.8125 -4.210938 8.222656 -3.8125 7.453125 -3.5625 L 10 0 Z M 5.5625 -4.234375 C 6.59375 -4.234375 7.378906 -4.460938 7.921875 -4.921875 C 8.460938 -5.378906 8.734375 -6.015625 8.734375 -6.828125 C 8.734375 -7.671875 8.460938 -8.316406 7.921875 -8.765625 C 7.378906 -9.222656 6.59375 -9.453125 5.5625 -9.453125 L 2.796875 -9.453125 L 2.796875 -4.234375 Z M 5.5625 -4.234375 "/></g></g></g><g fill="#a29e9e" fill-opacity="1"><g transform="translate(227.887591, 255.570204)"><g><path d="M 9.015625 -5.203125 L 10.078125 -5.203125 L 10.078125 -1.234375 C 9.585938 -0.804688 9.007812 -0.476562 8.34375 -0.25 C 7.6875 -0.0195312 6.988281 0.09375 6.25 0.09375 C 5.21875 0.09375 4.285156 -0.132812 3.453125 -0.59375 C 2.617188 -1.050781 1.960938 -1.679688 1.484375 -2.484375 C 1.003906 -3.296875 0.765625 -4.203125 0.765625 -5.203125 C 0.765625 -6.203125 1.003906 -7.101562 1.484375 -7.90625 C 1.960938 -8.71875 2.617188 -9.347656 3.453125 -9.796875 C 4.285156 -10.253906 5.222656 -10.484375 6.265625 -10.484375 C 7.054688 -10.484375 7.785156 -10.359375 8.453125 -10.109375 C 9.117188 -9.859375 9.679688 -9.484375 10.140625 -8.984375 L 9.453125 -8.296875 C 8.628906 -9.109375 7.582031 -9.515625 6.3125 -9.515625 C 5.46875 -9.515625 4.707031 -9.328125 4.03125 -8.953125 C 3.351562 -8.578125 2.820312 -8.0625 2.4375 -7.40625 C 2.050781 -6.75 1.859375 -6.015625 1.859375 -5.203125 C 1.859375 -4.390625 2.050781 -3.65625 2.4375 -3 C 2.820312 -2.34375 3.347656 -1.828125 4.015625 -1.453125 C 4.691406 -1.078125 5.453125 -0.890625 6.296875 -0.890625 C 7.367188 -0.890625 8.273438 -1.15625 9.015625 -1.6875 Z M 9.015625 -5.203125 "/></g></g></g><g fill="#a29e9e" fill-opacity="1"><g transform="translate(240.167124, 255.570204)"><g><path d="M 8.21875 -2.78125 L 2.421875 -2.78125 L 1.171875 0 L 0.03125 0 L 4.78125 -10.40625 L 5.875 -10.40625 L 10.625 0 L 9.46875 0 Z M 7.8125 -3.671875 L 5.3125 -9.25 L 2.828125 -3.671875 Z M 7.8125 -3.671875 "/></g></g></g><g fill="#a29e9e" fill-opacity="1"><g transform="translate(251.615186, 255.570204)"><g><path d="M 10.390625 -10.40625 L 10.390625 0 L 9.484375 0 L 2.796875 -8.4375 L 2.796875 0 L 1.6875 0 L 1.6875 -10.40625 L 2.59375 -10.40625 L 9.296875 -1.96875 L 9.296875 -10.40625 Z M 10.390625 -10.40625 "/></g></g></g><g fill="#a29e9e" fill-opacity="1"><g transform="translate(264.488621, 255.570204)"><g><path d="M 1.6875 -10.40625 L 2.796875 -10.40625 L 2.796875 0 L 1.6875 0 Z M 1.6875 -10.40625 "/></g></g></g><g fill="#a29e9e" fill-opacity="1"><g transform="translate(269.774921, 255.570204)"><g><path d="M 9.203125 -0.953125 L 9.203125 0 L 0.671875 0 L 0.671875 -0.765625 L 7.5625 -9.453125 L 0.765625 -9.453125 L 0.765625 -10.40625 L 9.015625 -10.40625 L 9.015625 -9.640625 L 2.140625 -0.953125 Z M 9.203125 -0.953125 "/></g></g></g><g fill="#a29e9e" fill-opacity="1"><g transform="translate(280.243037, 255.570204)"><g><path d="M 8.21875 -2.78125 L 2.421875 -2.78125 L 1.171875 0 L 0.03125 0 L 4.78125 -10.40625 L 5.875 -10.40625 L 10.625 0 L 9.46875 0 Z M 7.8125 -3.671875 L 5.3125 -9.25 L 2.828125 -3.671875 Z M 7.8125 -3.671875 "/></g></g></g><g fill="#a29e9e" fill-opacity="1"><g transform="translate(291.691088, 255.570204)"><g><path d="M 3.71875 -9.453125 L 0.0625 -9.453125 L 0.0625 -10.40625 L 8.46875 -10.40625 L 8.46875 -9.453125 L 4.8125 -9.453125 L 4.8125 0 L 3.71875 0 Z M 3.71875 -9.453125 "/></g></g></g><g fill="#a29e9e" fill-opacity="1"><g transform="translate(301.015939, 255.570204)"><g><path d="M 1.6875 -10.40625 L 2.796875 -10.40625 L 2.796875 0 L 1.6875 0 Z M 1.6875 -10.40625 "/></g></g></g><g fill="#a29e9e" fill-opacity="1"><g transform="translate(306.30224, 255.570204)"><g><path d="M 6.234375 0.09375 C 5.210938 0.09375 4.28125 -0.132812 3.4375 -0.59375 C 2.601562 -1.0625 1.945312 -1.695312 1.46875 -2.5 C 1 -3.300781 0.765625 -4.203125 0.765625 -5.203125 C 0.765625 -6.203125 1 -7.101562 1.46875 -7.90625 C 1.945312 -8.707031 2.601562 -9.335938 3.4375 -9.796875 C 4.28125 -10.253906 5.210938 -10.484375 6.234375 -10.484375 C 7.265625 -10.484375 8.191406 -10.253906 9.015625 -9.796875 C 9.847656 -9.347656 10.5 -8.71875 10.96875 -7.90625 C 11.445312 -7.101562 11.6875 -6.203125 11.6875 -5.203125 C 11.6875 -4.203125 11.445312 -3.296875 10.96875 -2.484375 C 10.5 -1.679688 9.847656 -1.050781 9.015625 -0.59375 C 8.191406 -0.132812 7.265625 0.09375 6.234375 0.09375 Z M 6.234375 -0.890625 C 7.054688 -0.890625 7.800781 -1.070312 8.46875 -1.4375 C 9.132812 -1.8125 9.65625 -2.328125 10.03125 -2.984375 C 10.40625 -3.648438 10.59375 -4.390625 10.59375 -5.203125 C 10.59375 -6.015625 10.40625 -6.75 10.03125 -7.40625 C 9.65625 -8.0625 9.132812 -8.578125 8.46875 -8.953125 C 7.800781 -9.328125 7.054688 -9.515625 6.234375 -9.515625 C 5.410156 -9.515625 4.664062 -9.328125 4 -8.953125 C 3.332031 -8.578125 2.804688 -8.0625 2.421875 -7.40625 C 2.046875 -6.75 1.859375 -6.015625 1.859375 -5.203125 C 1.859375 -4.390625 2.046875 -3.648438 2.421875 -2.984375 C 2.804688 -2.328125 3.332031 -1.8125 4 -1.4375 C 4.664062 -1.070312 5.410156 -0.890625 6.234375 -0.890625 Z M 6.234375 -0.890625 "/></g></g></g><g fill="#a29e9e" fill-opacity="1"><g transform="translate(319.561707, 255.570204)"><g><path d="M 10.390625 -10.40625 L 10.390625 0 L 9.484375 0 L 2.796875 -8.4375 L 2.796875 0 L 1.6875 0 L 1.6875 -10.40625 L 2.59375 -10.40625 L 9.296875 -1.96875 L 9.296875 -10.40625 Z M 10.390625 -10.40625 "/></g></g></g><g fill="#a29e9e" fill-opacity="1"><g transform="translate(332.429606, 255.570204)"><g/></g></g></svg>