<svg fill="none" viewBox="0 0 80 39" height="39" width="80" xmlns="http://www.w3.org/2000/svg">
                            <g clip-path="url(#clip0_134_34)">
                                <path fill="#5F6368" d="M37.8 19.7V29H34.8V6H42.6C44.5 6 46.3001 6.7 47.7001 8C49.1001 9.2 49.8 11 49.8 12.9C49.8 14.8 49.1001 16.5 47.7001 17.8C46.3001 19.1 44.6 19.8 42.6 19.8L37.8 19.7ZM37.8 8.8V16.8H42.8C43.9 16.8 45.0001 16.4 45.7001 15.6C47.3001 14.1 47.3 11.6 45.8 10.1L45.7001 10C44.9001 9.2 43.9 8.7 42.8 8.8H37.8Z"></path>
                                <path fill="#5F6368" d="M56.7001 12.8C58.9001 12.8 60.6001 13.4 61.9001 14.6C63.2001 15.8 63.8 17.4 63.8 19.4V29H61V26.8H60.9001C59.7001 28.6 58 29.5 56 29.5C54.3 29.5 52.8 29 51.6 28C50.5 27 49.8 25.6 49.8 24.1C49.8 22.5 50.4 21.2 51.6 20.2C52.8 19.2 54.5 18.8 56.5 18.8C58.3 18.8 59.7 19.1 60.8 19.8V19.1C60.8 18.1 60.4 17.1 59.6 16.5C58.8 15.8 57.8001 15.4 56.7001 15.4C55.0001 15.4 53.7 16.1 52.8 17.5L50.2001 15.9C51.8001 13.8 53.9001 12.8 56.7001 12.8ZM52.9001 24.2C52.9001 25 53.3001 25.7 53.9001 26.1C54.6001 26.6 55.4001 26.9 56.2001 26.9C57.4001 26.9 58.6 26.4 59.5 25.5C60.5 24.6 61 23.5 61 22.3C60.1 21.6 58.8 21.2 57.1 21.2C55.9 21.2 54.9 21.5 54.1 22.1C53.3 22.6 52.9001 23.3 52.9001 24.2Z"></path>
                                <path fill="#5F6368" d="M80 13.3L70.1 36H67.1L70.8 28.1L64.3 13.4H67.5L72.2 24.7H72.3L76.9 13.4H80V13.3Z"></path>
                                <path fill="#4285F4" d="M25.9 17.7C25.9 16.8 25.8 15.9 25.7 15H13.2V20.1H20.3C20 21.7 19.1 23.2 17.7 24.1V27.4H22C24.5 25.1 25.9 21.7 25.9 17.7Z"></path>
                                <path fill="#34A853" d="M13.1999 30.5999C16.7999 30.5999 19.7999 29.3999 21.9999 27.3999L17.6999 24.0999C16.4999 24.8999 14.9999 25.3999 13.1999 25.3999C9.7999 25.3999 6.7999 23.0999 5.7999 19.8999H1.3999V23.2999C3.6999 27.7999 8.1999 30.5999 13.1999 30.5999Z"></path>
                                <path fill="#FBBC04" d="M5.8001 19.8999C5.2001 18.2999 5.2001 16.4999 5.8001 14.7999V11.3999H1.4001C-0.499902 15.0999 -0.499902 19.4999 1.4001 23.2999L5.8001 19.8999Z"></path>
                                <path fill="#EA4335" d="M13.2 9.39996C15.1 9.39996 16.9 10.1 18.3 11.4L22.1 7.59996C19.7 5.39996 16.5 4.09996 13.3 4.19996C8.3 4.19996 3.7 6.99996 1.5 11.5L5.9 14.9C6.8 11.7 9.8 9.39996 13.2 9.39996Z"></path>
                            </g>
                            <defs>
                                <clipPath id="clip0_134_34">
                                    <rect fill="white" height="38.1" width="80"></rect>
                                </clipPath>
                            </defs>
                        </svg>