<svg viewBox="0 0 512 512" xml:space="preserve" xmlns="http://www.w3.org/2000/svg" enable-background="new 0 0 512 512"><path d="M489.2 94.5H21.9c-9.1 0-14.8 1.4-17.9 4.3-2.7 3.3-4 8.7-4 16.7v280.3c0 14.3 7.4 21.7 21.9 21.7h467.3c15.2 0 22.8-7.4 22.8-21.7V115.4c0-14.1-7.6-20.9-22.8-20.9z" fill-rule="evenodd" clip-rule="evenodd" fill="#f7f7f7" class="fill-dfdfe0"></path><path d="M300.4 287.4c-21.4 15.8-52.5 24.2-79.3 24.2-37.5 0-71.3-13.9-96.8-36.9-2-1.8-.2-4.3 2.2-2.9 27.6 16 61.7 25.7 96.9 25.7 23.8 0 49.9-4.9 73.9-15.1 3.6-1.6 6.7 2.3 3.1 5z" fill-rule="evenodd" clip-rule="evenodd" fill="#f8991d" class="fill-f8991d"></path><path d="M309.3 277.2c-2.7-3.5-18.1-1.7-25-.8-2.1.2-2.4-1.6-.5-2.9 12.3-8.6 32.4-6.1 34.7-3.2 2.4 2.9-.6 23.1-12.1 32.7-1.8 1.5-3.5.7-2.7-1.3 2.6-6.6 8.4-21 5.6-24.5z" fill-rule="evenodd" clip-rule="evenodd" fill="#f8991d" class="fill-f8991d"></path><path d="M284.8 212.6v-8.4c0-1.3 1-2.1 2.1-2.1h37.5c1.2 0 2.2.9 2.2 2.1v7.2c0 1.2-1 2.8-2.8 5.3l-19.4 27.8c7.2-.2 14.9.9 21.4 4.6 1.5.8 1.9 2.1 2 3.3v8.9c0 1.2-1.3 2.7-2.8 1.9-11.6-6.1-26.9-6.7-39.7.1-1.3.7-2.7-.7-2.7-1.9v-8.5c0-1.4 0-3.7 1.4-5.8l22.5-32.3h-19.6c-1.1-.1-2.1-1-2.1-2.2zM147.9 264.9h-11.4c-1.1-.1-2-.9-2-1.9v-58.6c0-1.2 1-2.1 2.2-2.1h10.6c1.1.1 2 .9 2.1 2v7.7h.2c2.8-7.4 8-10.9 15-10.9 7.1 0 11.6 3.5 14.8 10.9 2.8-7.4 9.1-10.9 15.8-10.9 4.8 0 10 2 13.2 6.4 3.6 4.9 2.9 12.1 2.9 18.4v37c0 1.2-1 2.1-2.2 2.1h-11.4c-1.1-.1-2-1-2-2.1v-31.1c0-2.5.2-8.6-.3-11-.9-3.9-3.4-5.1-6.7-5.1-2.8 0-5.6 1.9-6.8 4.8-1.2 3-1.1 7.9-1.1 11.2v31.1c0 1.2-1 2.1-2.2 2.1h-11.4c-1.1-.1-2-1-2-2.1v-31.1c0-6.5 1.1-16.2-7-16.2-8.2 0-7.9 9.4-7.9 16.2v31.1c-.2 1.1-1.2 2.1-2.4 2.1zM358.9 201c16.9 0 26.1 14.6 26.1 33 0 17.9-10.1 32.1-26.1 32.1-16.6 0-25.7-14.6-25.7-32.7 0-18.2 9.2-32.4 25.7-32.4zm.1 11.9c-8.4 0-9 11.5-9 18.6 0 7.2-.1 22.4 8.8 22.4 8.8 0 9.3-12.3 9.3-19.9 0-4.9-.2-10.9-1.7-15.5-1.2-4-3.8-5.6-7.4-5.6zM407 264.9h-11.4c-1.1-.1-2-1-2-2.1v-58.6c.1-1.1 1-1.9 2.2-1.9h10.6c1 .1 1.8.7 2 1.6v9h.2c3.2-8 7.7-11.8 15.6-11.8 5.1 0 10.1 1.9 13.3 6.9 3 4.7 3 12.6 3 18.2V263c-.1 1-1.1 1.8-2.2 1.8h-11.4c-1.1-.1-1.9-.8-2-1.8v-31.8c0-6.4.7-15.8-7.1-15.8-2.8 0-5.3 1.8-6.6 4.7-1.6 3.6-1.8 7.2-1.8 11.1v31.6c-.2 1.1-1.2 2.1-2.4 2.1zM254.9 236.9c0 4.4.1 8.2-2.1 12.1-1.8 3.2-4.7 5.2-7.9 5.2-4.4 0-6.9-3.3-6.9-8.3 0-9.7 8.7-11.5 17-11.5v2.5zm11.5 27.8c-.8.7-1.8.7-2.7.3-3.8-3.2-4.5-4.6-6.5-7.6-6.3 6.4-10.7 8.3-18.8 8.3-9.6 0-17.1-5.9-17.1-17.8 0-9.3 5-15.6 12.2-18.7 6.2-2.7 14.8-3.2 21.5-4v-1.5c0-2.7.2-5.9-1.4-8.3-1.4-2.1-4.1-3-6.4-3-4.4 0-8.2 2.2-9.2 6.9-.2 1-.9 2-2 2.1l-11.1-1.2c-.9-.2-2-1-1.7-2.4 2.5-13.4 14.7-17.5 25.5-17.5 5.6 0 12.8 1.5 17.2 5.7 5.6 5.2 5 12.1 5 19.6v17.8c0 5.4 2.2 7.7 4.3 10.6.7 1 .9 2.3 0 3-2.4 2.1-6.5 5.7-8.8 7.7zM105.2 236.9c0 4.4.1 8.2-2.1 12.1-1.8 3.2-4.7 5.2-7.9 5.2-4.4 0-6.9-3.3-6.9-8.3 0-9.7 8.7-11.5 17-11.5v2.5zm11.5 27.8c-.8.7-1.8.7-2.7.3-3.8-3.2-4.5-4.6-6.5-7.6-6.3 6.4-10.7 8.3-18.8 8.3-9.6 0-17.1-5.9-17.1-17.8 0-9.3 5-15.6 12.2-18.7 6.2-2.7 14.8-3.2 21.5-4v-1.5c0-2.7.2-5.9-1.4-8.3-1.4-2.1-4.1-3-6.4-3-4.4 0-8.2 2.2-9.2 6.9-.2 1-.9 2-2 2.1l-11.1-1.2c-.9-.2-2-1-1.7-2.4 2.5-13.4 14.7-17.5 25.5-17.5 5.6 0 12.8 1.5 17.2 5.7 5.6 5.2 5 12.1 5 19.6v17.8c0 5.4 2.2 7.7 4.3 10.6.7 1 .9 2.3 0 3-2.3 2.1-6.5 5.7-8.8 7.7z" fill-rule="evenodd" clip-rule="evenodd" fill="#010101" class="fill-010101"></path></svg>