<?xml version="1.0" ?><svg style="enable-background:new 0 0 64 64;" version="1.1" viewBox="0 0 64 64" xml:space="preserve" xmlns="http://www.w3.org/2000/svg" xmlns:xlink="http://www.w3.org/1999/xlink"><style type="text/css">
	.st0{fill:#0072FF;}
</style><g id="GUIDES_64"/><g id="Layer_3"/><g id="Layer_2"><path class="st0" d="M10.3,24.7C5.4,33.3,9.1,46,13.9,52.9c2.3,3.4,5.1,7.2,8.8,7.1c3.5-0.1,4.9-2.3,9.1-2.3c4.3,0,5.5,2.3,9.2,2.2   c3.8-0.1,6.2-3.5,8.5-6.9c1.7-2.5,2.8-5,3.3-6.5c0.3-0.8,0-1.7-0.8-2.1C50,43.2,46,40,45.9,33.8c0-5,2.8-8.1,4.6-9.6   c0.8-0.7,0.9-1.9,0.2-2.6c-3.2-3.4-7.3-3.9-8.9-4c-4.3-0.4-8.5,2.6-10.7,2.6c-2.2,0-5.6-2.5-9.2-2.4C17.1,17.7,12.8,20.4,10.3,24.7   z"/><path class="st0" d="M32.6,16.4c2.4-0.5,4.7-2,6.3-3.8c1.5-1.8,2.6-4.2,2.9-6.7c0.1-1.3-1.1-2.2-2.3-1.9c-2.2,0.7-4.4,2.1-5.9,3.8   c-1.4,1.7-2.7,4.1-3,6.7C30.5,15.7,31.5,16.7,32.6,16.4z"/></g></svg>