<svg viewBox="0 0 512 512" xml:space="preserve" xmlns="http://www.w3.org/2000/svg" enable-background="new 0 0 512 512"><path d="M489.2 94.5H21.9c-9.1 0-14.8 1.4-17.9 4.3-2.7 3.3-4 8.7-4 16.7v280.3c0 14.3 7.4 21.7 21.9 21.7h467.3c15.2 0 22.8-7.4 22.8-21.7V115.4c0-14.1-7.6-20.9-22.8-20.9z" fill-rule="evenodd" clip-rule="evenodd" fill="#fcf9f9" class="fill-dfdfe0"></path><path d="M256 341c20.2 18.5 47.1 29.7 76.5 29.7 63 0 114-51.4 114-114.7 0-63.4-51.1-114.7-114-114.7-29.5 0-56.3 11.2-76.5 29.7-23 21-37.5 51.3-37.5 85s14.5 64.1 37.5 85z" fill-rule="evenodd" clip-rule="evenodd" fill="#fcb131" class="fill-fcb131"></path><path d="M431.4 320c0-2.1 1.7-3.7 3.7-3.7s3.7 1.7 3.7 3.7-1.6 3.7-3.7 3.7-3.7-1.7-3.7-3.7zm3.7 2.8c1.6 0 2.8-1.3 2.8-2.8 0-1.6-1.3-2.8-2.8-2.8-1.5 0-2.8 1.3-2.8 2.8 0 1.5 1.2 2.8 2.8 2.8zm-.5-1.2h-.8v-3.3h1.4c.3 0 .6 0 .8.2.3.2.4.5.4.8 0 .4-.2.7-.6.8l.6 1.4h-.8l-.5-1.3h-.6v1.4-1.8h.4c.2 0 .3 0 .5-.1.1-.1.2-.2.2-.4 0-.1-.1-.3-.2-.3-.1-.1-.3-.1-.5-.1h-.4v2.7h.1z" fill-rule="evenodd" clip-rule="evenodd" fill="#fcb131" class="fill-fcb131"></path><path d="M292.9 243.8c-.4-4.1-1.1-8.2-1.9-12.1h-69.8c.9-4.1 2-8.2 3.3-12.1h63.2c-1.4-4.2-3-8.2-4.8-12.2h-53.5c2-4.2 4.2-8.2 6.6-12.1h40.4c-2.6-4.2-5.5-8.3-8.7-12.1h-23c3.5-4.3 7.4-8.4 11.5-12.1-20.2-18.5-47.1-29.7-76.5-29.7-63 0-114 51.4-114 114.7 0 63.4 51.1 114.7 114 114.7 29.5 0 56.3-11.2 76.5-29.7 4.1-3.8 8-7.8 11.5-12.1h-23c-3.1-3.8-6-7.9-8.7-12.1h40.4c2.4-3.9 4.6-8 6.6-12.1h-53.5c-1.8-3.9-3.5-8-4.9-12.1h63.2c1.3-4 2.4-8 3.3-12.1.9-4 1.5-8 1.9-12.2.4-4 .6-8 .6-12.1-.1-4.4-.3-8.5-.7-12.5z" fill-rule="evenodd" clip-rule="evenodd" fill="#ed1b2e" class="fill-ed1b2e"></path><path d="M431.4 282.6c0-2 1.7-3.7 3.7-3.7s3.7 1.7 3.7 3.7-1.6 3.7-3.7 3.7-3.7-1.6-3.7-3.7zm3.7 2.8c1.6 0 2.8-1.3 2.8-2.8 0-1.6-1.3-2.8-2.8-2.8-1.5 0-2.8 1.3-2.8 2.8 0 1.6 1.2 2.8 2.8 2.8zm-.5-1.2h-.8V281h1.4c.3 0 .6 0 .8.2.3.2.4.5.4.8 0 .4-.2.7-.6.8l.6 1.4h-.8l-.5-1.3h-.6v1.3-1.8h.4c.2 0 .3 0 .5-.1.1-.1.2-.2.2-.4 0-.1-.1-.3-.2-.3-.1-.1-.3-.1-.5-.1h-.4v2.7h.1z" fill-rule="evenodd" clip-rule="evenodd" fill="#ffffff" class="fill-ffffff"></path><path d="M217.2 289.1c-3.8 1.1-6.5 1.5-9.3 1.5-5.8 0-9.4-3.7-9.4-10.4 0-1.3.1-2.7.4-4.2l.7-4.6.6-3.7 5.4-32.3h11.9l-1.4 7h7.4l-1.8 11.9h-7.5l-3.2 19.3c-.1.9-.2 1.5-.2 2 0 2.4 1.3 3.5 4.2 3.5 1.4 0 2.5-.1 3.8-.4l-1.6 10.4zM255.5 288.7c-4.2 1.3-8.3 1.9-12.7 1.9-13.2 0-21-7.3-21-21.2 0-16.2 9.2-28.2 21.6-28.2 10.2 0 16.7 6.7 16.7 17.2 0 3.5-.4 6.9-1.5 11.7H234c-.1.7-.1 1.1-.1 1.5 0 5.5 3.7 8.3 10.9 8.3 4.4 0 8.4-.9 12.9-3l-2.2 11.8zm-7.4-28.2c.1-1 .1-1.8.1-2.4 0-3.8-2.2-6.1-5.9-6.1-3.9 0-6.8 3-7.9 8.5h13.7zM122.8 289.7h-12.4l7.1-44.7-15.9 44.7h-8.4l-1-44.5-7.5 44.5h-12l9.7-58.2h17.8l.5 36.1 12-36.1h19.6l-9.5 58.2zM152.5 268.6c-1.3-.2-1.5-.2-2.4-.2-7 0-10.6 2.7-10.6 7.2 0 2.9 1.7 4.8 4.4 4.8 6 .1 8.4-4.8 8.6-11.8zm9.8 21.1h-10.7l.2-4.9c-2.7 3.7-6.4 5.7-13 5.7-6 0-11-5.3-11-12.9 0-2.3.4-4.3.9-6.2 2-7.3 9.3-11.9 20.5-12.1 1.4 0 3.6 0 5.4.2.4-1.6.5-2.2.5-3.1 0-3.1-2.6-4.1-8.3-4.1-3.5 0-7.5.6-10.2 1.4l-1.7.5-.7.2 1.7-10.6c5.8-1.8 9.8-2.5 14.4-2.5 10.6 0 16.3 4.8 16.3 13.9 0 2.3.2 4.1-.6 9.4l-2.6 16.8-.4 3-.3 2.4-.2 1.6-.2 1.3zM315 242.8c3.4 0 6.6.9 11.1 3.1l2-12.6c-1.1-.5-1.4-.6-3-1.1l-5.1-1.3c-1.6-.4-3.4-.6-5.5-.6-6.1 0-9.7.1-13.5 2.4-2 1.2-4.5 3-7.4 6.2l-1.5-.5-12.6 9 .6-5.1H267l-7.5 47.3h12.4l4.5-25.5s1.8-3.5 2.6-4.6c2.3-3.1 4.3-3.1 6.9-3h.9c-.4 2.8-.6 5.8-.6 9 0 15.5 8.7 25.1 22.1 25.1 3.4 0 6.4-.5 10.9-1.7l2.2-13.3c-4.1 2-7.5 3-10.5 3-7.2 0-11.5-5.3-11.5-14.2-.1-12.6 6.4-21.6 15.6-21.6zM419.6 231.5l-2.7 16.6c-3-4.5-6.5-6.6-11.3-6.6-6.5 0-12.5 3.7-16.2 10.7v-.1l-7.9-4.7.6-5.1H369l-7.5 47.3h12.4l4.1-25.5s3.2-3.5 4-4.6c1.8-2.4 3.8-2.9 5.5-3-1.4 4-2.3 8.7-2.3 14.1 0 11.8 6.1 19.7 15.1 19.7 4.5 0 8-1.6 11.4-5.3l-.6 4.6h11.7l9.4-58.2h-12.6v.1zm-15.1 47.1c-4.2 0-6.4-3.1-6.4-9.3 0-9.3 4-15.9 9.6-15.9 4.3 0 6.6 3.3 6.6 9.3 0 9.3-4 15.9-9.8 15.9zM347.5 268.6c-1.3-.2-1.5-.2-2.4-.2-7 0-10.6 2.7-10.6 7.2 0 2.9 1.7 4.8 4.4 4.8 6 .1 8.4-4.8 8.6-11.8zm9.8 21.1h-10.7l.2-4.9c-2.7 3.7-6.4 5.7-13 5.7-6 0-11.4-5.2-11.4-13 .1-11.2 8.4-18.2 21.8-18.2 1.4 0 3.6 0 5.5.2.4-1.6.5-2.2.5-3.1 0-3.1-2.6-4.1-8.3-4.1-3.5 0-7.5.6-10.2 1.4l-1.7.5-.7.2 1.7-10.6c5.8-1.8 9.8-2.5 14.4-2.5 10.6 0 16.3 4.8 16.3 13.9 0 2.3.2 4.1-.6 9.4l-2.6 16.8-.4 3-.3 2.4-.2 1.6-.3 1.3zM188.1 252.5c2.4 0 5.7.2 9.3.7l1.8-10.9c-3.6-.5-8.2-1-11.1-1-13.8 0-18.4 7.4-18.4 16.2 0 5.6 2.7 9.9 9.2 13 5 2.4 5.9 2.8 5.9 5 0 2.9-2.6 4.6-7.4 4.6-3.7 0-7.1-.6-11.1-1.9l-1.4 10.9.3.1 2.3.5c.7.1 1.8.3 3.2.5 2.9.3 5.4.4 7 .4 13.7 0 19.4-5.4 19.4-15.8 0-6.5-3.1-10.3-9.3-13.2-5.2-2.4-5.8-2.7-5.8-4.9 0-2.3 2.3-4.2 6.1-4.2z" fill-rule="evenodd" clip-rule="evenodd" fill="#003473" class="fill-003473"></path><path d="m331.4 229.7-2 12.6c-4.4-2.2-7.6-3.1-11.1-3.1-9.2 0-15.7 9-15.7 21.8 0 8.8 4.4 14.2 11.6 14.2 3.1 0 6.4-1 10.5-3l-2.2 13.3c-4.6 1.2-7.5 1.7-10.9 1.7-13.3 0-21.6-9.6-21.6-25.1 0-20.8 11.5-35.3 27.9-35.3 2.1 0 4 .2 5.5.6l5.1 1.3c1.5.4 1.8.5 2.9 1zM291.7 238.3c-.4-.1-.8-.1-1.3-.1-4.1 0-6.4 2.1-10.2 7.7l1.1-7.2h-11.2l-7.6 47.3H275c4.4-28.9 5.6-33.9 11.5-33.9h.9c1.1-5.7 2.6-9.9 4.7-13.7l-.4-.1zM220.4 285.5c-3.4 1.1-6 1.5-8.9 1.5-6.3 0-9.8-3.7-9.8-10.4 0-1.3.1-2.7.4-4.2l.8-4.6.6-3.7 5.4-32.3h12.3l-1.4 7h6.3l-1.7 11.5h-6.3l-3.3 19.7c-.1.9-.2 1.5-.2 2 0 2.4 1.3 3.5 4.2 3.5 1.4 0 2.5-.1 3.3-.4l-1.7 10.4zM172.8 253.7c0 6 2.9 10.1 9.4 13.2 5 2.4 5.8 3.1 5.8 5.2 0 2.9-2.2 4.3-7.1 4.3-3.7 0-7.1-.6-11.1-1.9l-1.7 10.9.6.1 2.3.5c.7.1 1.8.3 3.2.4 2.9.3 5.2.4 6.8.4 13 0 19.1-5 19.1-15.8 0-6.5-2.5-10.3-8.7-13.2-5.2-2.4-5.8-2.9-5.8-5.1 0-2.6 2.1-3.9 6.1-3.9 2.4 0 5.7.3 8.9.7l1.8-11c-3.2-.5-8.1-.9-10.9-.9-13.9.1-18.7 7.4-18.7 16.1zM425.9 286.1h-11.7l.6-4.6c-3.4 3.7-6.9 5.3-11.4 5.3-9 0-15-7.8-15-19.7 0-15.7 9.2-29 20.1-29 4.8 0 8.5 2 11.9 6.5l2.7-16.6h12.2l-9.4 58.1zm-18.2-11.2c5.8 0 9.8-6.6 9.8-16 0-6-2.3-9.3-6.6-9.3-5.6 0-9.6 6.6-9.6 15.9 0 6.3 2.2 9.4 6.4 9.4zM258.2 285c-4.2 1.3-8.3 1.9-12.7 1.9-13.8 0-21-7.3-21-21.2 0-16.3 9.2-28.2 21.6-28.2 10.2 0 16.7 6.7 16.7 17.2 0 3.5-.4 6.9-1.5 11.7h-24.6c-.1.7-.1 1.1-.1 1.5 0 5.5 3.7 8.3 10.9 8.3 4.4 0 8.4-.9 12.8-3l-2.1 11.8zm-6.9-28.1c.1-1 .1-1.8.1-2.4 0-3.8-2.2-6.1-5.9-6.1-3.9 0-6.8 3-7.9 8.5h13.7zM125.9 286.1h-12.4l7.1-44.8-15.8 44.8h-8.5l-1-44.5-7.5 44.5H76.3l9.6-58.2h17.8l.5 36 12-36h19.3l-9.6 58.2zM156.4 265c-1.3-.1-1.9-.2-2.8-.2-7 0-10.6 2.4-10.6 7.2 0 2.9 1.7 4.8 4.4 4.8 5.1 0 8.8-4.8 9-11.8zm9 21.1h-10.3l.2-4.9c-3.1 3.9-7.3 5.7-13 5.7-6.7 0-11.3-5.3-11.3-12.9 0-11.5 8-18.2 21.7-18.2 1.4 0 3.2.1 5 .4.4-1.6.5-2.2.5-3.1 0-3.1-2.2-4.3-7.9-4.3-3.5 0-7.5.5-10.3 1.3l-1.7.5-1.1.3 1.7-10.6c6.2-1.8 10.2-2.5 14.8-2.5 10.6 0 16.3 4.8 16.3 13.9 0 2.3-.2 4.1-1 9.4l-2.6 16.8-.4 3-.3 2.4-.2 1.6-.1 1.2zM351.4 265c-1.3-.1-1.9-.2-2.8-.2-7 0-10.6 2.4-10.6 7.2 0 2.9 1.7 4.8 4.4 4.8 5.2 0 8.8-4.8 9-11.8zm9 21.1h-10.3l.2-4.9c-3.1 3.9-7.3 5.7-13 5.7-6.7 0-11.3-5.3-11.3-12.9 0-11.5 8-18.2 21.7-18.2 1.4 0 3.2.1 5 .4.4-1.6.5-2.2.5-3.1 0-3.1-2.2-4.3-7.9-4.3-3.5 0-7.5.5-10.3 1.3l-1.7.5-1.1.3 1.7-10.6c6.2-1.8 10.2-2.5 14.8-2.5 10.6 0 16.3 4.8 16.3 13.9 0 2.3-.2 4.1-1 9.4l-2.6 16.8-.4 3-.3 2.4-.2 1.6-.1 1.2zM393.6 238.3c-.4-.1-.8-.1-1.2-.1-4.1 0-6.4 2.1-10.2 7.7l1.1-7.2h-11.2l-7.5 47.3H377c4.4-28.9 5.6-33.9 11.5-33.9h.9c1.1-5.7 2.6-9.9 4.7-13.7l-.5-.1z" fill-rule="evenodd" clip-rule="evenodd" fill="#ffffff" class="fill-ffffff"></path></svg>