<?xml version="1.0" ?><svg enable-background="new 0 0 48 48" id="Layer_1" version="1.1" viewBox="0 0 48 48" xml:space="preserve" xmlns="http://www.w3.org/2000/svg" xmlns:xlink="http://www.w3.org/1999/xlink"><g><g opacity="0.3"><path d="M26.9251709,18.7165527h-1.0704956v2.1841431h1.0704956    c0.7338257,0,1.1654663-0.3970947,1.1654663-1.0877686C28.0906372,19.1223145,27.6676025,18.7165527,26.9251709,18.7165527z" fill="#29ABE2"/><path d="M29.9640503,22.2992554c0,0.3539429,0.310791,0.5784302,0.7855835,0.5784302    c0.6043091-0.008606,1.0704956-0.3971558,1.0704956-0.94104v-0.319397l-1.0014038,0.0690918    C30.2575684,21.7208252,29.9640503,21.9280396,29.9640503,22.2992554z" fill="#29ABE2"/><path d="M40,9.5H14c-1.1030273,0-2,0.8969727-2,2v18c0,1.1030273,0.8969727,2,2,2h26c1.1030273,0,2-0.8969727,2-2    v-18C42,10.3969727,41.1030273,9.5,40,9.5z M20.6712036,16.1063232c0.288208-0.3377686,0.776062-0.590332,1.1784058-0.6063232    c0.0513916,0.468811-0.1361694,0.9389648-0.4157104,1.277771c-0.2796631,0.3381348-0.7381592,0.600769-1.1870117,0.5658569    C20.1854248,16.8846436,20.4121704,16.4060059,20.6712036,16.1063232z M22.9605713,22.507019    c-0.3335571,0.4869995-0.6797485,0.9725342-1.2242432,0.9823608c-0.5366821,0.0100708-0.7086792-0.3171387-1.321106-0.3171387    c-0.6119385,0-0.8029785,0.307312-1.3104248,0.3272095c-0.526001,0.0197754-0.927124-0.5273438-1.2627563-1.0123901    c-0.6876221-0.9932251-1.2125244-2.8064575-0.5073853-4.0307617c0.3499146-0.6079102,0.9759521-0.992981,1.6555176-1.0024414    c0.5161133-0.0101318,1.0043945,0.3474731,1.3197632,0.3474731c0.3162231,0,0.9088745-0.4296875,1.5317383-0.3671265    c0.2608643,0.0109863,0.9935303,0.1052246,1.4630737,0.7936401c-0.0377197,0.0231323-0.8739624,0.5106812-0.8643188,1.5223389    c0.0110474,1.2105103,1.0620117,1.6140137,1.0737305,1.6182861C23.5049438,21.3968506,23.3461304,21.9428711,22.9605713,22.507019    z M27.1237183,21.6172485h-1.269043v1.8734131H25V18h2.1496582c1.0618286,0,1.8129272,0.7338257,1.8129272,1.8043213    S28.2028809,21.6172485,27.1237183,21.6172485z M32.6402588,23.4819946h-0.7855835v-0.6906128h-0.0172729    c-0.2244263,0.4489136-0.7424316,0.7337646-1.3035889,0.7337646c-0.8374023,0.008667-1.4071655-0.4834595-1.4071655-1.2172241    c0-0.7252197,0.5610962-1.1395874,1.579834-1.2086792l1.1136475-0.0604248v-0.319397    c0-0.4748535-0.319397-0.7338257-0.8632813-0.7338257c-0.4489136,0-0.7769775,0.2330933-0.8460693,0.5870361h-0.7683105    c0.0258789-0.7338257,0.7165527-1.269043,1.6402588-1.269043c1.0100708,0,1.6575317,0.5352173,1.6575317,1.3467407V23.4819946z     M35.4546509,23.671936c-0.3539429,0.9927979-0.7424316,1.3121948-1.5884399,1.3121948    c-0.0604858,0.008667-0.2590332-0.008606-0.328064-0.0172119v-0.6734009    c0.0604248,0.0172729,0.1898804,0.0172729,0.2589722,0.0172729c0.3884888,0,0.6129761-0.1640625,0.7510986-0.6043091    l0.0604248-0.2158203l-1.5021973-4.1439209h0.8892212l1.0618896,3.3755493h0.0172729l1.0618896-3.3755493H37L35.4546509,23.671936    z" fill="#29ABE2"/></g><g><path clip-rule="evenodd" d="M28,20.5H8c-1.1030273,0-2,0.8969727-2,2v14    c0,1.1030273,0.8969727,2,2,2h20c1.1030273,0,2-0.8969727,2-2v-14C30,21.3969727,29.1030273,20.5,28,20.5z M29,36.5    c0,0.5512695-0.4487305,1-1,1H8c-0.5512695,0-1-0.4487305-1-1v-14c0-0.5512695,0.4487305-1,1-1h20c0.5512695,0,1,0.4487305,1,1    V36.5z" fill="#29ABE2" fill-rule="evenodd"/><path clip-rule="evenodd" d="M18.7913818,27.9264526H17v4.5755615h0.7122192v-1.5611572    h1.0575562c0.899292,0,1.5324097-0.6187134,1.5324097-1.5108032S19.6762695,27.9264526,18.7913818,27.9264526z     M18.6043091,30.34375h-0.8920898v-1.8201904h0.8920898c0.6187134,0,0.9712524,0.3381348,0.9712524,0.9136963    C19.5755615,30.0127563,19.2158203,30.34375,18.6043091,30.34375z" fill="#29ABE2" fill-rule="evenodd"/><path clip-rule="evenodd" d="M21.9855957,29.0127563    c-0.7697754,0-1.3453369,0.4460449-1.3668823,1.0575562h0.6402588c0.0575562-0.2949219,0.3309326-0.4891968,0.7050781-0.4891968    c0.453186,0,0.7194214,0.2158203,0.7194214,0.6115112v0.2661743l-0.9281006,0.050415    c-0.848877,0.0575562-1.3165283,0.402832-1.3165283,1.0071411c0,0.6115112,0.4748535,1.0216064,1.1726685,1.0144043    c0.4676514,0,0.899292-0.2374268,1.0863037-0.6115112h0.0144043v0.5755615h0.6546631v-2.3597412    C23.3668823,29.4588013,22.8273315,29.0127563,21.9855957,29.0127563z M22.6834717,31.2070313    c0,0.4532471-0.3884888,0.7769775-0.8920898,0.7841797c-0.3956909,0-0.6546631-0.1870728-0.6546631-0.4819946    c0-0.3093872,0.2445679-0.4820557,0.7122192-0.5108032l0.8345337-0.0575562V31.2070313z" fill="#29ABE2" fill-rule="evenodd"/><path clip-rule="evenodd" d="M25.3956909,31.8616943h-0.0144043l-0.8848877-2.8129272    h-0.7410278l1.2518311,3.4532471l-0.050354,0.1798096c-0.1151123,0.3669434-0.3021851,0.5036011-0.6259155,0.5036011    c-0.0575562,0-0.1654663,0-0.2158203-0.0143433v0.5611572c0.0575562,0.0071411,0.2230225,0.0215454,0.2733765,0.0143433    c0.7050171,0,1.0287476-0.2661743,1.3237305-1.0935059L27,29.0487671h-0.7194214L25.3956909,31.8616943z" fill="#29ABE2" fill-rule="evenodd"/><path clip-rule="evenodd" d="M14.4404297,29.7501831    c-0.0096436-1.0116577,0.8265991-1.4992065,0.8643188-1.5223389c-0.4695435-0.6884155-1.2022095-0.7826538-1.4630737-0.7936401    c-0.6228638-0.062561-1.2155151,0.3671265-1.5317383,0.3671265c-0.3153687,0-0.8036499-0.357605-1.3197632-0.3474731    c-0.6795654,0.0094604-1.305603,0.3945313-1.6555176,1.0024414c-0.7051392,1.2243042-0.1802368,3.0375366,0.5073853,4.0307617    c0.3356323,0.4850464,0.7367554,1.0321655,1.2627563,1.0123901c0.5074463-0.0198975,0.6984863-0.3272095,1.3104248-0.3272095    c0.6124268,0,0.7844238,0.3272095,1.321106,0.3171387c0.5444946-0.0098267,0.890686-0.4953613,1.2242432-0.9823608    c0.3855591-0.5641479,0.5443726-1.1101685,0.5535889-1.1385498    C15.5024414,31.3641968,14.4514771,30.9606934,14.4404297,29.7501831z" fill="#29ABE2" fill-rule="evenodd"/><path clip-rule="evenodd" d="M13.8496094,25.5    c-0.4023438,0.0159912-0.8901978,0.2685547-1.1784058,0.6063232c-0.2590332,0.2996826-0.4857788,0.7783203-0.4243164,1.2373047    c0.4488525,0.0349121,0.9073486-0.2277222,1.1870117-0.5658569C13.7134399,26.4389648,13.901001,25.968811,13.8496094,25.5z" fill="#29ABE2" fill-rule="evenodd"/></g></g><g/><g/><g/><g/><g/><g/><g/><g/><g/><g/><g/><g/><g/><g/><g/></svg>