<svg viewBox="0 0 156 128" xml:space="preserve" xmlns="http://www.w3.org/2000/svg" xmlns:xlink="http://www.w3.org/1999/xlink" enable-background="new 0 0 156 128"><defs><path d="M14 30c0-3.3 2.7-6 6-6h116c3.3 0 6 2.7 6 6v68c0 3.3-2.7 6-6 6H20c-3.3 0-6-2.7-6-6V30z" id="a"></path></defs><use xlink:href="#a" overflow="visible" fill-rule="evenodd" clip-rule="evenodd" fill="#fcf9f9" class="fill-ffffff"></use><clipPath id="b"><use xlink:href="#a" overflow="visible"></use></clipPath><path d="M14 30c0-3.3 2.7-6 6-6h116c3.3 0 6 2.7 6 6v68c0 3.3-2.7 6-6 6H20c-3.3 0-6-2.7-6-6V30z" clip-path="url(#b)" fill="#fcf9f9" stroke="#ffffff" stroke-width="2" stroke-miterlimit="10" class="fill-ffffff stroke-cbcbcb"></path><defs><path id="c" d="M19.3 88h117.3v10.7H19.3z"></path></defs><clipPath id="d"><use xlink:href="#c" overflow="visible"></use></clipPath><path d="M14.3 83h127.3v20.7H14.3z" clip-path="url(#d)" fill="#f7b600" class="fill-f7b600"></path><defs><path id="e" d="M19.3 29.3h117.3V40H19.3z"></path></defs><clipPath id="f"><use xlink:href="#e" overflow="visible"></use></clipPath><path d="M14.3 24.3h127.3V45H14.3z" clip-path="url(#f)" fill="#1a1f71" class="fill-1a1f71"></path><defs><path d="m78.2 49.9-6.1 28.7h-7.4l6.1-28.7h7.4zm31.4 18.5 3.9-10.8 2.3 10.8h-6.2zm8.3 10.2h6.9l-6-28.7h-6.4c-1.4 0-2.7.8-3.2 2.1L98 78.6h7.8l1.5-4.3h9.6l1 4.3zm-19.4-9.4c0-7.6-10.5-8-10.4-11.4 0-1.1 1-2.1 3.2-2.4 2.5-.2 5.1.2 7.4 1.3l1.3-6.1c-2.2-.9-4.6-1.3-7-1.3-7.4 0-12.5 3.9-12.6 9.5-.1 4.2 3.7 6.4 6.5 7.8 2.8 1.4 3.9 2.4 3.9 3.6 0 1.9-2.4 2.8-4.5 2.8-2.7.1-5.3-.6-7.7-1.8l-1.4 6.3c2.6 1.1 5.4 1.6 8.3 1.5 7.8.1 12.9-3.8 13-9.8zM67.6 49.9l-12 28.7h-7.9l-5.9-23c-.4-1.4-.7-1.9-1.7-2.5-2.3-1.1-4.8-1.9-7.4-2.4l.2-.8h12.7c1.7 0 3.2 1.3 3.4 3l3 16.5 7.7-19.6h7.9z" id="g"></path></defs><clipPath id="h"><use xlink:href="#g" overflow="visible"></use></clipPath><path d="M27.7 44.3h102.1V84H27.7z" clip-path="url(#h)" fill="#1a1f71" class="fill-1a1f71"></path></svg>