<?xml version="1.0" ?><!DOCTYPE svg  PUBLIC '-//W3C//DTD SVG 1.1//EN'  'http://www.w3.org/Graphics/SVG/1.1/DTD/svg11.dtd'><svg enable-background="new 0 0 87 56" height="56px" id="Layer_1" version="1.1" viewBox="0 0 87 56" width="87px" xml:space="preserve" xmlns="http://www.w3.org/2000/svg" xmlns:xlink="http://www.w3.org/1999/xlink"><g><path d="M86,52.636C86,53.941,84.84,55,83.407,55H3.593C2.161,55,1,53.941,1,52.636V3.365C1,2.059,2.161,1,3.593,1   h79.814C84.84,1,86,2.059,86,3.365V52.636z" fill="#F1F2F2"/><g><path d="M66.576,19.795c-3.981-5.638-10.592-9.003-17.315-9.003c-6.726,0-13.339,3.365-17.312,9.003l-0.205,0.29    h5.011l0.056-0.06c3.413-3.521,7.866-5.384,12.448-5.384c4.579,0,9.033,1.862,12.45,5.384l0.057,0.06h5.01L66.576,19.795    L66.576,19.795z" fill="#E21F2A"/><path d="M29.757,38.553l-0.096,0.097c-1.54,1.565-3.321,2.397-5.156,2.397c-3.832,0-6.613-2.877-6.613-6.842    c0-3.959,2.781-6.837,6.613-6.837c1.834,0,3.615,0.835,5.156,2.405l0.096,0.097l2.465-2.979l-0.067-0.081    c-2.05-2.424-4.509-3.601-7.532-3.601c-3.034,0-5.806,1.021-7.804,2.863c-2.173,1.991-3.319,4.804-3.319,8.133    c0,3.327,1.146,6.147,3.321,8.141c1.998,1.851,4.769,2.862,7.804,2.862c3.023,0,5.48-1.175,7.531-3.599l0.067-0.075L29.757,38.553    L29.757,38.553z" fill="#034EA1"/><polygon fill="#034EA1" points="34.711,44.805 39.063,44.805 39.063,23.554 34.711,23.554 34.711,44.805   "/><path d="M56.117,40.184c-1.16,0.709-2.243,1.064-3.213,1.064c-1.406,0-2.041-0.744-2.041-2.397V27.575h4.434    v-4.002h-4.434V16.96l-4.268,2.281v4.33h-3.68v4.002h3.68v11.995c0,3.267,1.936,5.497,4.828,5.558    c1.961,0.037,3.145-0.546,3.863-0.972l0.041-0.032l1.047-4.102L56.117,40.184L56.117,40.184z" fill="#034EA1"/><polygon fill="#034EA1" points="59.724,44.805 64.078,44.805 64.078,23.554 59.724,23.554 59.724,44.805   "/><path d="M71.223,15.597c-1.294,0-2.28,0.987-2.28,2.281s0.986,2.277,2.28,2.277c1.296,0,2.277-0.983,2.277-2.277    S72.519,15.597,71.223,15.597z M71.223,19.789c-1.088,0-1.914-0.826-1.914-1.911c0-1.088,0.826-1.914,1.914-1.914    c1.085,0,1.91,0.826,1.91,1.914C73.133,18.963,72.308,19.789,71.223,19.789z" fill="#034EA1"/><path d="M72.261,17.339c0-0.52-0.372-0.752-0.814-0.752h-1.092v2.489h0.42v-0.961h0.478l0.489,0.961h0.499    l-0.511-1.006C72.055,17.978,72.261,17.73,72.261,17.339z M71.435,17.705h-0.658V17h0.658c0.229,0,0.396,0.12,0.396,0.352    C71.831,17.598,71.664,17.705,71.435,17.705z" fill="#034EA1"/></g></g></svg>