<svg viewBox="0 0 512 512" xml:space="preserve" xmlns="http://www.w3.org/2000/svg" enable-background="new 0 0 512 512"><path d="M489.2 94.5H21.9c-9.1 0-14.8 1.4-17.9 4.3-2.7 3.3-4 8.7-4 16.7v280.3c0 14.3 7.4 21.7 21.9 21.7h467.3c15.2 0 22.8-7.4 22.8-21.7V115.4c0-14.1-7.6-20.9-22.8-20.9z" fill-rule="evenodd" clip-rule="evenodd" fill="#f7f7f7" class="fill-dfdfe0"></path><path d="M134 218.8c-23.2 0-42.6 9.9-42.6 39.6 0 23.5 13 38.4 43.2 38.4 35.5 0 37.8-23.4 37.8-23.4h-17.2s-3.7 12.6-21.6 12.6c-14.6 0-25.1-9.9-25.1-23.7h65.7v-8.7c-.1-13.7-8.8-34.8-40.2-34.8zm-.6 11.1c13.9 0 23.4 8.5 23.4 21.3h-48c0-13.6 12.3-21.3 24.6-21.3z" fill="#e53338" class="fill-e53338"></path><path d="M174.1 190v91.8c0 5.2-.4 12.5-.4 12.5h16.4s.6-5.3.6-10.1c0 0 8.1 12.7 30.1 12.7 23.2 0 39-16.1 39-39.2 0-21.5-14.5-38.7-38.9-38.7-22.9 0-30 12.4-30 12.4V190h-16.8zm42.6 40.4c15.8 0 25.8 11.7 25.8 27.4 0 16.8-11.6 27.8-25.7 27.8-16.8 0-25.9-13.1-25.9-27.7 0-13.5 8.1-27.5 25.8-27.5z" fill="#3466b1" class="fill-3466b1"></path><path d="M300.6 218.8c-34.9 0-37.2 19.1-37.2 22.2h17.4s.9-11.2 18.6-11.2c11.5 0 20.4 5.3 20.4 15.4v3.6h-20.4c-27.1 0-41.4 7.9-41.4 24 0 15.8 13.2 24.4 31.1 24.4 24.3 0 32.2-13.5 32.2-13.5 0 5.4.4 10.6.4 10.6h15.5s-.6-6.5-.6-10.7v-36.1c0-23.7-19.1-28.7-36-28.7zm19.2 40.8v4.8c0 6.3-3.9 21.8-26.6 21.8-12.4 0-17.8-6.2-17.8-13.4.1-13.1 18-13.2 44.4-13.2z" fill="#f3af1c" class="fill-f3af1c"></path><path d="M327.2 221.8h19.6l28.1 56.2 28-56.2h17.7l-51 100.1H351l14.7-27.9-38.5-72.2z" fill="#86b940" class="fill-86b940"></path></svg>