<svg xmlns="http://www.w3.org/2000/svg" xmlns:xlink="http://www.w3.org/1999/xlink" width="320" zoomAndPan="magnify" viewBox="0 0 240 104.999996" height="140" preserveAspectRatio="xMidYMid meet" version="1.0"><defs><g/><clipPath id="0732d87744"><path d="M 7.605469 0 L 64.414062 0 L 64.414062 105 L 7.605469 105 Z M 7.605469 0 " clip-rule="nonzero"/></clipPath><clipPath id="130d96c704"><path d="M 13.300781 11.445312 L 64.414062 11.445312 L 64.414062 59 L 13.300781 59 Z M 13.300781 11.445312 " clip-rule="nonzero"/></clipPath></defs><g clip-path="url(#0732d87744)"><path fill="#003e54" d="M 38.496094 54.628906 C 6.269531 58.4375 1.855469 82.160156 13.394531 105.011719 C 8.597656 81.566406 17.410156 66.46875 35.679688 62.554688 C 47.121094 60.105469 61.871094 54.882812 64.082031 41.53125 C 64.125 41.28125 64.140625 41.019531 64.171875 40.761719 C 58.917969 49.15625 49.988281 53.269531 38.496094 54.628906 Z M 54.714844 12.75 C 56.335938 8.007812 57.113281 7.449219 62.109375 7.429688 C 57.386719 5.796875 56.828125 5.015625 56.808594 0 C 55.183594 4.742188 54.40625 5.300781 49.414062 5.324219 C 54.136719 6.953125 54.691406 7.734375 54.714844 12.75 " fill-opacity="1" fill-rule="nonzero"/></g><g clip-path="url(#130d96c704)"><path fill="#ffca0f" d="M 35.890625 34.980469 C 39.832031 34.980469 43.027344 31.769531 43.027344 27.808594 C 43.027344 23.84375 39.832031 20.632812 35.890625 20.632812 C 31.945312 20.632812 28.746094 23.84375 28.746094 27.808594 C 28.746094 31.769531 31.945312 34.980469 35.890625 34.980469 Z M 60.402344 11.597656 C 65.417969 20.402344 58.515625 33.722656 34.988281 39.976562 C 20.867188 43.726562 15.3125 51.464844 13.496094 58.90625 C 18.292969 53.636719 25.839844 49.191406 36.476562 47.269531 C 47.988281 45.1875 62.429688 38.835938 64.261719 25.429688 C 64.878906 20.890625 63.660156 15.710938 60.402344 11.597656 " fill-opacity="1" fill-rule="nonzero"/></g><g fill="#ffca0f" fill-opacity="1"><g transform="translate(19.752244, 89.299986)"><g><path d="M 19.578125 -18.90625 L 19.578125 0 L 15.984375 0 L 6.5625 -11.46875 L 6.5625 0 L 2.234375 0 L 2.234375 -18.90625 L 5.859375 -18.90625 L 15.25 -7.421875 L 15.25 -18.90625 Z M 19.578125 -18.90625 "/></g></g></g><g fill="#ffca0f" fill-opacity="1"><g transform="translate(43.026252, 89.299986)"><g><path d="M 16.578125 -14.53125 L 16.578125 0 L 12.578125 0 L 12.578125 -1.734375 C 12.023438 -1.097656 11.359375 -0.613281 10.578125 -0.28125 C 9.804688 0.0507812 8.972656 0.21875 8.078125 0.21875 C 6.171875 0.21875 4.65625 -0.328125 3.53125 -1.421875 C 2.414062 -2.523438 1.859375 -4.15625 1.859375 -6.3125 L 1.859375 -14.53125 L 6.078125 -14.53125 L 6.078125 -6.9375 C 6.078125 -4.59375 7.054688 -3.421875 9.015625 -3.421875 C 10.023438 -3.421875 10.832031 -3.75 11.4375 -4.40625 C 12.050781 -5.070312 12.359375 -6.050781 12.359375 -7.34375 L 12.359375 -14.53125 Z M 16.578125 -14.53125 "/></g></g></g><g fill="#ffca0f" fill-opacity="1"><g transform="translate(63.033258, 89.299986)"><g><path d="M 5.96875 -12.609375 C 6.46875 -13.304688 7.144531 -13.832031 8 -14.1875 C 8.851562 -14.550781 9.84375 -14.734375 10.96875 -14.734375 L 10.96875 -10.859375 C 10.5 -10.890625 10.179688 -10.90625 10.015625 -10.90625 C 8.804688 -10.90625 7.859375 -10.566406 7.171875 -9.890625 C 6.492188 -9.222656 6.15625 -8.210938 6.15625 -6.859375 L 6.15625 0 L 1.9375 0 L 1.9375 -14.53125 L 5.96875 -14.53125 Z M 5.96875 -12.609375 "/></g></g></g><g fill="#ffca0f" fill-opacity="1"><g transform="translate(76.128262, 89.299986)"><g><path d="M 11.3125 -0.703125 C 10.894531 -0.398438 10.382812 -0.171875 9.78125 -0.015625 C 9.1875 0.140625 8.554688 0.21875 7.890625 0.21875 C 6.160156 0.21875 4.820312 -0.222656 3.875 -1.109375 C 2.925781 -1.992188 2.453125 -3.289062 2.453125 -5 L 2.453125 -10.96875 L 0.21875 -10.96875 L 0.21875 -14.203125 L 2.453125 -14.203125 L 2.453125 -17.734375 L 6.671875 -17.734375 L 6.671875 -14.203125 L 10.28125 -14.203125 L 10.28125 -10.96875 L 6.671875 -10.96875 L 6.671875 -5.046875 C 6.671875 -4.429688 6.828125 -3.957031 7.140625 -3.625 C 7.453125 -3.289062 7.898438 -3.125 8.484375 -3.125 C 9.148438 -3.125 9.710938 -3.304688 10.171875 -3.671875 Z M 11.3125 -0.703125 "/></g></g></g><g fill="#ffca0f" fill-opacity="1"><g transform="translate(89.331264, 89.299986)"><g><path d="M 16.578125 -14.53125 L 16.578125 0 L 12.578125 0 L 12.578125 -1.734375 C 12.023438 -1.097656 11.359375 -0.613281 10.578125 -0.28125 C 9.804688 0.0507812 8.972656 0.21875 8.078125 0.21875 C 6.171875 0.21875 4.65625 -0.328125 3.53125 -1.421875 C 2.414062 -2.523438 1.859375 -4.15625 1.859375 -6.3125 L 1.859375 -14.53125 L 6.078125 -14.53125 L 6.078125 -6.9375 C 6.078125 -4.59375 7.054688 -3.421875 9.015625 -3.421875 C 10.023438 -3.421875 10.832031 -3.75 11.4375 -4.40625 C 12.050781 -5.070312 12.359375 -6.050781 12.359375 -7.34375 L 12.359375 -14.53125 Z M 16.578125 -14.53125 "/></g></g></g><g fill="#ffca0f" fill-opacity="1"><g transform="translate(109.33827, 89.299986)"><g><path d="M 5.96875 -12.609375 C 6.46875 -13.304688 7.144531 -13.832031 8 -14.1875 C 8.851562 -14.550781 9.84375 -14.734375 10.96875 -14.734375 L 10.96875 -10.859375 C 10.5 -10.890625 10.179688 -10.90625 10.015625 -10.90625 C 8.804688 -10.90625 7.859375 -10.566406 7.171875 -9.890625 C 6.492188 -9.222656 6.15625 -8.210938 6.15625 -6.859375 L 6.15625 0 L 1.9375 0 L 1.9375 -14.53125 L 5.96875 -14.53125 Z M 5.96875 -12.609375 "/></g></g></g><g fill="#ffca0f" fill-opacity="1"><g transform="translate(122.433274, 89.299986)"><g><path d="M 16.171875 -7.203125 C 16.171875 -7.148438 16.144531 -6.773438 16.09375 -6.078125 L 5.109375 -6.078125 C 5.304688 -5.171875 5.769531 -4.457031 6.5 -3.9375 C 7.238281 -3.414062 8.160156 -3.15625 9.265625 -3.15625 C 10.015625 -3.15625 10.679688 -3.265625 11.265625 -3.484375 C 11.859375 -3.710938 12.40625 -4.070312 12.90625 -4.5625 L 15.140625 -2.140625 C 13.773438 -0.566406 11.78125 0.21875 9.15625 0.21875 C 7.519531 0.21875 6.070312 -0.0976562 4.8125 -0.734375 C 3.550781 -1.378906 2.578125 -2.269531 1.890625 -3.40625 C 1.203125 -4.539062 0.859375 -5.828125 0.859375 -7.265625 C 0.859375 -8.679688 1.195312 -9.960938 1.875 -11.109375 C 2.550781 -12.253906 3.476562 -13.144531 4.65625 -13.78125 C 5.832031 -14.414062 7.148438 -14.734375 8.609375 -14.734375 C 10.035156 -14.734375 11.320312 -14.425781 12.46875 -13.8125 C 13.625 -13.207031 14.53125 -12.332031 15.1875 -11.1875 C 15.84375 -10.050781 16.171875 -8.722656 16.171875 -7.203125 Z M 8.640625 -11.5625 C 7.679688 -11.5625 6.878906 -11.289062 6.234375 -10.75 C 5.585938 -10.207031 5.191406 -9.46875 5.046875 -8.53125 L 12.203125 -8.53125 C 12.054688 -9.445312 11.660156 -10.179688 11.015625 -10.734375 C 10.367188 -11.285156 9.578125 -11.5625 8.640625 -11.5625 Z M 8.640625 -11.5625 "/></g></g></g><g fill="#ffca0f" fill-opacity="1"><g transform="translate(140.928275, 89.299986)"><g><path d="M 14.28125 0 L 10.640625 -5.265625 L 6.609375 -5.265625 L 6.609375 0 L 2.234375 0 L 2.234375 -18.90625 L 10.421875 -18.90625 C 12.097656 -18.90625 13.550781 -18.625 14.78125 -18.0625 C 16.007812 -17.5 16.957031 -16.703125 17.625 -15.671875 C 18.289062 -14.648438 18.625 -13.441406 18.625 -12.046875 C 18.625 -10.640625 18.285156 -9.425781 17.609375 -8.40625 C 16.941406 -7.394531 15.984375 -6.617188 14.734375 -6.078125 L 18.984375 0 Z M 14.203125 -12.046875 C 14.203125 -13.109375 13.859375 -13.921875 13.171875 -14.484375 C 12.492188 -15.054688 11.492188 -15.34375 10.171875 -15.34375 L 6.609375 -15.34375 L 6.609375 -8.75 L 10.171875 -8.75 C 11.492188 -8.75 12.492188 -9.035156 13.171875 -9.609375 C 13.859375 -10.179688 14.203125 -10.992188 14.203125 -12.046875 Z M 14.203125 -12.046875 "/></g></g></g><g fill="#ffca0f" fill-opacity="1"><g transform="translate(162.231279, 89.299986)"><g><path d="M 16.171875 -7.203125 C 16.171875 -7.148438 16.144531 -6.773438 16.09375 -6.078125 L 5.109375 -6.078125 C 5.304688 -5.171875 5.769531 -4.457031 6.5 -3.9375 C 7.238281 -3.414062 8.160156 -3.15625 9.265625 -3.15625 C 10.015625 -3.15625 10.679688 -3.265625 11.265625 -3.484375 C 11.859375 -3.710938 12.40625 -4.070312 12.90625 -4.5625 L 15.140625 -2.140625 C 13.773438 -0.566406 11.78125 0.21875 9.15625 0.21875 C 7.519531 0.21875 6.070312 -0.0976562 4.8125 -0.734375 C 3.550781 -1.378906 2.578125 -2.269531 1.890625 -3.40625 C 1.203125 -4.539062 0.859375 -5.828125 0.859375 -7.265625 C 0.859375 -8.679688 1.195312 -9.960938 1.875 -11.109375 C 2.550781 -12.253906 3.476562 -13.144531 4.65625 -13.78125 C 5.832031 -14.414062 7.148438 -14.734375 8.609375 -14.734375 C 10.035156 -14.734375 11.320312 -14.425781 12.46875 -13.8125 C 13.625 -13.207031 14.53125 -12.332031 15.1875 -11.1875 C 15.84375 -10.050781 16.171875 -8.722656 16.171875 -7.203125 Z M 8.640625 -11.5625 C 7.679688 -11.5625 6.878906 -11.289062 6.234375 -10.75 C 5.585938 -10.207031 5.191406 -9.46875 5.046875 -8.53125 L 12.203125 -8.53125 C 12.054688 -9.445312 11.660156 -10.179688 11.015625 -10.734375 C 10.367188 -11.285156 9.578125 -11.5625 8.640625 -11.5625 Z M 8.640625 -11.5625 "/></g></g></g><g fill="#ffca0f" fill-opacity="1"><g transform="translate(180.72628, 89.299986)"><g><path d="M 7.796875 -14.734375 C 10.046875 -14.734375 11.773438 -14.195312 12.984375 -13.125 C 14.191406 -12.0625 14.796875 -10.445312 14.796875 -8.28125 L 14.796875 0 L 10.859375 0 L 10.859375 -1.8125 C 10.066406 -0.457031 8.585938 0.21875 6.421875 0.21875 C 5.304688 0.21875 4.335938 0.03125 3.515625 -0.34375 C 2.703125 -0.726562 2.078125 -1.253906 1.640625 -1.921875 C 1.210938 -2.585938 1 -3.34375 1 -4.1875 C 1 -5.53125 1.503906 -6.585938 2.515625 -7.359375 C 3.535156 -8.140625 5.109375 -8.53125 7.234375 -8.53125 L 10.578125 -8.53125 C 10.578125 -9.445312 10.296875 -10.148438 9.734375 -10.640625 C 9.179688 -11.140625 8.347656 -11.390625 7.234375 -11.390625 C 6.460938 -11.390625 5.703125 -11.269531 4.953125 -11.03125 C 4.203125 -10.789062 3.566406 -10.460938 3.046875 -10.046875 L 1.53125 -12.984375 C 2.332031 -13.546875 3.285156 -13.976562 4.390625 -14.28125 C 5.492188 -14.582031 6.628906 -14.734375 7.796875 -14.734375 Z M 7.484375 -2.625 C 8.203125 -2.625 8.835938 -2.789062 9.390625 -3.125 C 9.953125 -3.457031 10.347656 -3.945312 10.578125 -4.59375 L 10.578125 -6.078125 L 7.6875 -6.078125 C 5.96875 -6.078125 5.109375 -5.507812 5.109375 -4.375 C 5.109375 -3.832031 5.316406 -3.40625 5.734375 -3.09375 C 6.160156 -2.78125 6.742188 -2.625 7.484375 -2.625 Z M 7.484375 -2.625 "/></g></g></g><g fill="#ffca0f" fill-opacity="1"><g transform="translate(198.843283, 89.299986)"><g><path d="M 8.96875 0.21875 C 7.414062 0.21875 6.019531 -0.0976562 4.78125 -0.734375 C 3.550781 -1.378906 2.585938 -2.269531 1.890625 -3.40625 C 1.203125 -4.539062 0.859375 -5.828125 0.859375 -7.265625 C 0.859375 -8.703125 1.203125 -9.988281 1.890625 -11.125 C 2.585938 -12.257812 3.550781 -13.144531 4.78125 -13.78125 C 6.019531 -14.414062 7.414062 -14.734375 8.96875 -14.734375 C 10.5 -14.734375 11.832031 -14.414062 12.96875 -13.78125 C 14.113281 -13.144531 14.945312 -12.234375 15.46875 -11.046875 L 12.203125 -9.28125 C 11.441406 -10.613281 10.351562 -11.28125 8.9375 -11.28125 C 7.84375 -11.28125 6.929688 -10.921875 6.203125 -10.203125 C 5.484375 -9.484375 5.125 -8.503906 5.125 -7.265625 C 5.125 -6.023438 5.484375 -5.039062 6.203125 -4.3125 C 6.929688 -3.59375 7.84375 -3.234375 8.9375 -3.234375 C 10.375 -3.234375 11.460938 -3.898438 12.203125 -5.234375 L 15.46875 -3.453125 C 14.945312 -2.304688 14.113281 -1.40625 12.96875 -0.75 C 11.832031 -0.101562 10.5 0.21875 8.96875 0.21875 Z M 8.96875 0.21875 "/></g></g></g><g fill="#ffca0f" fill-opacity="1"><g transform="translate(216.258272, 89.299986)"><g><path d="M 10.765625 -14.734375 C 12.566406 -14.734375 14.019531 -14.191406 15.125 -13.109375 C 16.238281 -12.035156 16.796875 -10.4375 16.796875 -8.3125 L 16.796875 0 L 12.578125 0 L 12.578125 -7.671875 C 12.578125 -8.816406 12.320312 -9.671875 11.8125 -10.234375 C 11.3125 -10.804688 10.585938 -11.09375 9.640625 -11.09375 C 8.578125 -11.09375 7.726562 -10.765625 7.09375 -10.109375 C 6.46875 -9.453125 6.15625 -8.476562 6.15625 -7.1875 L 6.15625 0 L 1.9375 0 L 1.9375 -20.03125 L 6.15625 -20.03125 L 6.15625 -13.015625 C 6.71875 -13.566406 7.394531 -13.988281 8.1875 -14.28125 C 8.976562 -14.582031 9.835938 -14.734375 10.765625 -14.734375 Z M 10.765625 -14.734375 "/></g></g></g><g fill="#ffca0f" fill-opacity="1"><g transform="translate(236.361601, 89.299986)"><g/></g></g><g fill="#ffffff" fill-opacity="1"><g transform="translate(50.386364, 100.986349)"><g><path d="M 5.171875 0.078125 C 4.304688 0.078125 3.53125 -0.109375 2.84375 -0.484375 C 2.15625 -0.867188 1.613281 -1.394531 1.21875 -2.0625 C 0.832031 -2.738281 0.640625 -3.492188 0.640625 -4.328125 C 0.640625 -5.160156 0.832031 -5.910156 1.21875 -6.578125 C 1.613281 -7.253906 2.15625 -7.78125 2.84375 -8.15625 C 3.539062 -8.53125 4.316406 -8.71875 5.171875 -8.71875 C 5.816406 -8.71875 6.410156 -8.609375 6.953125 -8.390625 C 7.503906 -8.179688 7.96875 -7.875 8.34375 -7.46875 L 7.765625 -6.890625 C 7.085938 -7.566406 6.234375 -7.90625 5.203125 -7.90625 C 4.515625 -7.90625 3.890625 -7.75 3.328125 -7.4375 C 2.773438 -7.125 2.335938 -6.695312 2.015625 -6.15625 C 1.703125 -5.613281 1.546875 -5.003906 1.546875 -4.328125 C 1.546875 -3.648438 1.703125 -3.039062 2.015625 -2.5 C 2.335938 -1.957031 2.773438 -1.523438 3.328125 -1.203125 C 3.890625 -0.890625 4.515625 -0.734375 5.203125 -0.734375 C 6.242188 -0.734375 7.097656 -1.082031 7.765625 -1.78125 L 8.34375 -1.203125 C 7.96875 -0.785156 7.503906 -0.46875 6.953125 -0.25 C 6.398438 -0.03125 5.804688 0.078125 5.171875 0.078125 Z M 5.171875 0.078125 "/></g></g></g><g fill="#ffffff" fill-opacity="1"><g transform="translate(60.293317, 100.986349)"><g><path d="M 8.640625 -8.65625 L 8.640625 0 L 7.734375 0 L 7.734375 -3.984375 L 2.328125 -3.984375 L 2.328125 0 L 1.40625 0 L 1.40625 -8.65625 L 2.328125 -8.65625 L 2.328125 -4.796875 L 7.734375 -4.796875 L 7.734375 -8.65625 Z M 8.640625 -8.65625 "/></g></g></g><g fill="#ffffff" fill-opacity="1"><g transform="translate(71.36132, 100.986349)"><g><path d="M 6.828125 -2.3125 L 2.015625 -2.3125 L 0.96875 0 L 0.03125 0 L 3.984375 -8.65625 L 4.875 -8.65625 L 8.84375 0 L 7.875 0 Z M 6.5 -3.046875 L 4.421875 -7.703125 L 2.34375 -3.046875 Z M 6.5 -3.046875 "/></g></g></g><g fill="#ffffff" fill-opacity="1"><g transform="translate(81.243575, 100.986349)"><g><path d="M 7.3125 0 L 5.34375 -2.78125 C 5.113281 -2.757812 4.878906 -2.75 4.640625 -2.75 L 2.328125 -2.75 L 2.328125 0 L 1.40625 0 L 1.40625 -8.65625 L 4.640625 -8.65625 C 5.742188 -8.65625 6.609375 -8.390625 7.234375 -7.859375 C 7.867188 -7.328125 8.1875 -6.601562 8.1875 -5.6875 C 8.1875 -5.007812 8.015625 -4.4375 7.671875 -3.96875 C 7.328125 -3.507812 6.835938 -3.175781 6.203125 -2.96875 L 8.3125 0 Z M 4.625 -3.515625 C 5.476562 -3.515625 6.128906 -3.703125 6.578125 -4.078125 C 7.035156 -4.460938 7.265625 -5 7.265625 -5.6875 C 7.265625 -6.382812 7.035156 -6.921875 6.578125 -7.296875 C 6.128906 -7.671875 5.476562 -7.859375 4.625 -7.859375 L 2.328125 -7.859375 L 2.328125 -3.515625 Z M 4.625 -3.515625 "/></g></g></g><g fill="#ffffff" fill-opacity="1"><g transform="translate(91.199946, 100.986349)"><g><path d="M 1.40625 -8.65625 L 2.328125 -8.65625 L 2.328125 0 L 1.40625 0 Z M 1.40625 -8.65625 "/></g></g></g><g fill="#ffffff" fill-opacity="1"><g transform="translate(95.956304, 100.986349)"><g><path d="M 3.09375 -7.859375 L 0.046875 -7.859375 L 0.046875 -8.65625 L 7.046875 -8.65625 L 7.046875 -7.859375 L 4 -7.859375 L 4 0 L 3.09375 0 Z M 3.09375 -7.859375 "/></g></g></g><g fill="#ffffff" fill-opacity="1"><g transform="translate(104.072282, 100.986349)"><g><path d="M 4.375 -2.984375 L 4.375 0 L 3.46875 0 L 3.46875 -2.984375 L 0.015625 -8.65625 L 0.984375 -8.65625 L 3.953125 -3.796875 L 6.921875 -8.65625 L 7.828125 -8.65625 Z M 4.375 -2.984375 "/></g></g></g><g fill="#ffffff" fill-opacity="1"><g transform="translate(112.941716, 100.986349)"><g/></g></g><g fill="#ffffff" fill-opacity="1"><g transform="translate(117.20401, 100.986349)"><g><path d="M 2.328125 -7.859375 L 2.328125 -4.46875 L 6.796875 -4.46875 L 6.796875 -3.671875 L 2.328125 -3.671875 L 2.328125 0 L 1.40625 0 L 1.40625 -8.65625 L 7.34375 -8.65625 L 7.34375 -7.859375 Z M 2.328125 -7.859375 "/></g></g></g><g fill="#ffffff" fill-opacity="1"><g transform="translate(126.048736, 100.986349)"><g><path d="M 5.1875 0.078125 C 4.332031 0.078125 3.554688 -0.113281 2.859375 -0.5 C 2.160156 -0.882812 1.613281 -1.410156 1.21875 -2.078125 C 0.832031 -2.742188 0.640625 -3.492188 0.640625 -4.328125 C 0.640625 -5.160156 0.832031 -5.910156 1.21875 -6.578125 C 1.613281 -7.242188 2.160156 -7.765625 2.859375 -8.140625 C 3.554688 -8.523438 4.332031 -8.71875 5.1875 -8.71875 C 6.039062 -8.71875 6.8125 -8.53125 7.5 -8.15625 C 8.195312 -7.78125 8.742188 -7.253906 9.140625 -6.578125 C 9.535156 -5.910156 9.734375 -5.160156 9.734375 -4.328125 C 9.734375 -3.492188 9.535156 -2.738281 9.140625 -2.0625 C 8.742188 -1.394531 8.195312 -0.867188 7.5 -0.484375 C 6.8125 -0.109375 6.039062 0.078125 5.1875 0.078125 Z M 5.1875 -0.734375 C 5.875 -0.734375 6.492188 -0.890625 7.046875 -1.203125 C 7.597656 -1.515625 8.03125 -1.941406 8.34375 -2.484375 C 8.65625 -3.035156 8.8125 -3.648438 8.8125 -4.328125 C 8.8125 -5.003906 8.65625 -5.613281 8.34375 -6.15625 C 8.03125 -6.707031 7.597656 -7.132812 7.046875 -7.4375 C 6.492188 -7.75 5.875 -7.90625 5.1875 -7.90625 C 4.507812 -7.90625 3.890625 -7.75 3.328125 -7.4375 C 2.773438 -7.132812 2.335938 -6.707031 2.015625 -6.15625 C 1.703125 -5.613281 1.546875 -5.003906 1.546875 -4.328125 C 1.546875 -3.648438 1.703125 -3.035156 2.015625 -2.484375 C 2.335938 -1.941406 2.773438 -1.515625 3.328125 -1.203125 C 3.890625 -0.890625 4.507812 -0.734375 5.1875 -0.734375 Z M 5.1875 -0.734375 "/></g></g></g><g fill="#ffffff" fill-opacity="1"><g transform="translate(137.437884, 100.986349)"><g><path d="M 4.890625 0.078125 C 3.773438 0.078125 2.898438 -0.242188 2.265625 -0.890625 C 1.640625 -1.535156 1.328125 -2.472656 1.328125 -3.703125 L 1.328125 -8.65625 L 2.25 -8.65625 L 2.25 -3.734375 C 2.25 -2.722656 2.472656 -1.96875 2.921875 -1.46875 C 3.378906 -0.976562 4.035156 -0.734375 4.890625 -0.734375 C 5.753906 -0.734375 6.410156 -0.976562 6.859375 -1.46875 C 7.316406 -1.96875 7.546875 -2.722656 7.546875 -3.734375 L 7.546875 -8.65625 L 8.4375 -8.65625 L 8.4375 -3.703125 C 8.4375 -2.472656 8.125 -1.535156 7.5 -0.890625 C 6.882812 -0.242188 6.015625 0.078125 4.890625 0.078125 Z M 4.890625 0.078125 "/></g></g></g><g fill="#ffffff" fill-opacity="1"><g transform="translate(148.246502, 100.986349)"><g><path d="M 8.640625 -8.65625 L 8.640625 0 L 7.890625 0 L 2.328125 -7.015625 L 2.328125 0 L 1.40625 0 L 1.40625 -8.65625 L 2.15625 -8.65625 L 7.734375 -1.625 L 7.734375 -8.65625 Z M 8.640625 -8.65625 "/></g></g></g><g fill="#ffffff" fill-opacity="1"><g transform="translate(159.314505, 100.986349)"><g><path d="M 1.40625 -8.65625 L 4.9375 -8.65625 C 5.84375 -8.65625 6.644531 -8.46875 7.34375 -8.09375 C 8.050781 -7.726562 8.597656 -7.21875 8.984375 -6.5625 C 9.367188 -5.914062 9.5625 -5.171875 9.5625 -4.328125 C 9.5625 -3.484375 9.367188 -2.734375 8.984375 -2.078125 C 8.597656 -1.421875 8.050781 -0.910156 7.34375 -0.546875 C 6.644531 -0.179688 5.84375 0 4.9375 0 L 1.40625 0 Z M 4.875 -0.796875 C 5.632812 -0.796875 6.296875 -0.941406 6.859375 -1.234375 C 7.429688 -1.535156 7.875 -1.953125 8.1875 -2.484375 C 8.5 -3.015625 8.65625 -3.628906 8.65625 -4.328125 C 8.65625 -5.015625 8.5 -5.625 8.1875 -6.15625 C 7.875 -6.6875 7.429688 -7.101562 6.859375 -7.40625 C 6.296875 -7.707031 5.632812 -7.859375 4.875 -7.859375 L 2.328125 -7.859375 L 2.328125 -0.796875 Z M 4.875 -0.796875 "/></g></g></g><g fill="#ffffff" fill-opacity="1"><g transform="translate(170.543081, 100.986349)"><g><path d="M 6.828125 -2.3125 L 2.015625 -2.3125 L 0.96875 0 L 0.03125 0 L 3.984375 -8.65625 L 4.875 -8.65625 L 8.84375 0 L 7.875 0 Z M 6.5 -3.046875 L 4.421875 -7.703125 L 2.34375 -3.046875 Z M 6.5 -3.046875 "/></g></g></g><g fill="#ffffff" fill-opacity="1"><g transform="translate(180.42534, 100.986349)"><g><path d="M 3.09375 -7.859375 L 0.046875 -7.859375 L 0.046875 -8.65625 L 7.046875 -8.65625 L 7.046875 -7.859375 L 4 -7.859375 L 4 0 L 3.09375 0 Z M 3.09375 -7.859375 "/></g></g></g><g fill="#ffffff" fill-opacity="1"><g transform="translate(188.541317, 100.986349)"><g><path d="M 1.40625 -8.65625 L 2.328125 -8.65625 L 2.328125 0 L 1.40625 0 Z M 1.40625 -8.65625 "/></g></g></g><g fill="#ffffff" fill-opacity="1"><g transform="translate(193.297676, 100.986349)"><g><path d="M 5.1875 0.078125 C 4.332031 0.078125 3.554688 -0.113281 2.859375 -0.5 C 2.160156 -0.882812 1.613281 -1.410156 1.21875 -2.078125 C 0.832031 -2.742188 0.640625 -3.492188 0.640625 -4.328125 C 0.640625 -5.160156 0.832031 -5.910156 1.21875 -6.578125 C 1.613281 -7.242188 2.160156 -7.765625 2.859375 -8.140625 C 3.554688 -8.523438 4.332031 -8.71875 5.1875 -8.71875 C 6.039062 -8.71875 6.8125 -8.53125 7.5 -8.15625 C 8.195312 -7.78125 8.742188 -7.253906 9.140625 -6.578125 C 9.535156 -5.910156 9.734375 -5.160156 9.734375 -4.328125 C 9.734375 -3.492188 9.535156 -2.738281 9.140625 -2.0625 C 8.742188 -1.394531 8.195312 -0.867188 7.5 -0.484375 C 6.8125 -0.109375 6.039062 0.078125 5.1875 0.078125 Z M 5.1875 -0.734375 C 5.875 -0.734375 6.492188 -0.890625 7.046875 -1.203125 C 7.597656 -1.515625 8.03125 -1.941406 8.34375 -2.484375 C 8.65625 -3.035156 8.8125 -3.648438 8.8125 -4.328125 C 8.8125 -5.003906 8.65625 -5.613281 8.34375 -6.15625 C 8.03125 -6.707031 7.597656 -7.132812 7.046875 -7.4375 C 6.492188 -7.75 5.875 -7.90625 5.1875 -7.90625 C 4.507812 -7.90625 3.890625 -7.75 3.328125 -7.4375 C 2.773438 -7.132812 2.335938 -6.707031 2.015625 -6.15625 C 1.703125 -5.613281 1.546875 -5.003906 1.546875 -4.328125 C 1.546875 -3.648438 1.703125 -3.035156 2.015625 -2.484375 C 2.335938 -1.941406 2.773438 -1.515625 3.328125 -1.203125 C 3.890625 -0.890625 4.507812 -0.734375 5.1875 -0.734375 Z M 5.1875 -0.734375 "/></g></g></g><g fill="#ffffff" fill-opacity="1"><g transform="translate(204.686824, 100.986349)"><g><path d="M 8.640625 -8.65625 L 8.640625 0 L 7.890625 0 L 2.328125 -7.015625 L 2.328125 0 L 1.40625 0 L 1.40625 -8.65625 L 2.15625 -8.65625 L 7.734375 -1.625 L 7.734375 -8.65625 Z M 8.640625 -8.65625 "/></g></g></g></svg>